<svg width="12" height="12" viewBox="0 0 12 12" fill="none" xmlns="http://www.w3.org/2000/svg">
<path d="M1.57568 10.0605C2.34404 10.8932 3.34266 11.5078 4.47232 11.8037C4.16862 11.3385 3.91603 10.7402 3.71865 10.0605H1.57568Z" fill="white"/>
<path d="M7.64347 2.76149H4.3563C4.17008 3.5777 4.04672 4.53749 4.02087 5.5893H7.9801C7.95308 4.53754 7.83028 3.57779 7.64347 2.76149Z" fill="white"/>
<path d="M6.00002 12.0001C6.5005 12.0001 7.0333 11.2665 7.421 10.0605H4.5791C4.9668 11.2664 5.49954 12.0001 6.00002 12.0001Z" fill="white"/>
<path d="M10.4243 10.0605H8.28137C8.08458 10.7414 7.83199 11.3385 7.52771 11.8037C8.65732 11.5078 9.65525 10.8914 10.4243 10.0605Z" fill="white"/>
<path d="M8.80432 5.5893H11.9999C11.9294 4.55276 11.594 3.58829 11.06 2.76149H8.48596C8.67394 3.64802 8.78023 4.62014 8.80432 5.5893Z" fill="white"/>
<path d="M7.98092 6.41068H4.01929C4.04513 7.46243 4.16791 8.42218 4.35471 9.23848H7.64369C7.83049 8.42227 7.95331 7.46248 7.98092 6.41068Z" fill="white"/>
<path d="M11.9999 6.41068H8.80427C8.78019 7.37981 8.67328 8.35183 8.48706 9.23848H11.0617C11.5939 8.41172 11.9294 7.44733 11.9999 6.41068Z" fill="white"/>
<path d="M4.47232 0.196289C3.3427 0.49161 2.34473 1.10801 1.57568 1.93944H3.71861C3.91598 1.25976 4.16862 0.661515 4.47232 0.196289Z" fill="white"/>
<path d="M3.51395 2.76149H0.93988C0.405908 3.58825 0.0704985 4.55264 0 5.5893H3.19559C3.21968 4.62016 3.32597 3.64814 3.51395 2.76149Z" fill="white"/>
<path d="M6.00002 0C5.49954 0 4.96674 0.733591 4.57904 1.9395H7.42094C7.03324 0.733636 6.5005 0 6.00002 0Z" fill="white"/>
<path d="M10.4243 1.93944C9.65599 1.10682 8.65737 0.49218 7.52771 0.196289C7.8314 0.66153 8.084 1.25976 8.28137 1.93944H10.4243Z" fill="white"/>
<path d="M3.51401 9.23848C3.32779 8.35372 3.21913 7.37983 3.19679 6.41068H0C0.070491 7.44721 0.405908 8.41168 0.93988 9.23848H3.51401Z" fill="white"/>
</svg>
