<svg width="77" height="74" viewBox="0 0 77 74" fill="none" xmlns="http://www.w3.org/2000/svg">
<g filter="url(#filter0_d_444_2854)">
<path d="M54.8661 17.2742C56.327 16.7001 57.9915 17.045 59.1034 18.1482C60.2152 19.2533 60.5599 20.9092 59.9823 22.3591L57.6962 28.1042C57.0105 27.9692 56.3016 27.8972 55.576 27.8972C49.5837 27.8973 44.7255 32.7257 44.7255 38.6814C44.7256 42.546 46.7728 45.9338 49.8466 47.8376L46.3925 56.5212C45.7339 58.1824 44.025 59.1897 42.243 58.9705C40.4588 58.7471 39.049 57.359 38.8163 55.5857L36.5292 40.2615L21.4335 38.3103C19.6512 38.0791 18.2529 36.6803 18.0302 34.905C17.8074 33.1338 18.8212 31.4364 20.493 30.78L54.8661 17.2742Z" fill="#2F2F2F"/>
<path d="M55.5655 31.627C56.9865 31.6078 58.3813 32.0078 59.5736 32.7764C60.7659 33.545 61.7021 34.6478 62.2638 35.9452C62.8255 37.2427 62.9875 38.6765 62.7292 40.0654C62.471 41.4543 61.8042 42.736 60.8131 43.7482C59.822 44.7605 58.5511 45.4579 57.1612 45.7523C55.7712 46.0467 54.3247 45.9249 53.0044 45.4022C51.6842 44.8795 50.5495 43.9795 49.7439 42.8159C48.9383 41.6523 48.498 40.2774 48.4787 38.8651L55.6634 38.7678L55.5655 31.627Z" fill="#2F2F2F"/>
</g>
<defs>
<filter id="filter0_d_444_2854" x="0.0996342" y="0.1" width="76.8004" height="73.8002" filterUnits="userSpaceOnUse" color-interpolation-filters="sRGB">
<feFlood flood-opacity="0" result="BackgroundImageFix"/>
<feColorMatrix in="SourceAlpha" type="matrix" values="0 0 0 0 0 0 0 0 0 0 0 0 0 0 0 0 0 0 127 0" result="hardAlpha"/>
<feOffset dx="-2" dy="-1"/>
<feGaussianBlur stdDeviation="7.95"/>
<feComposite in2="hardAlpha" operator="out"/>
<feColorMatrix type="matrix" values="0 0 0 0 0.451923 0 0 0 0 0.451923 0 0 0 0 0.451923 0 0 0 0.25 0"/>
<feBlend mode="normal" in2="BackgroundImageFix" result="effect1_dropShadow_444_2854"/>
<feBlend mode="normal" in="SourceGraphic" in2="effect1_dropShadow_444_2854" result="shape"/>
</filter>
</defs>
</svg>
