<svg width="35" height="33" viewBox="0 0 35 33" fill="none" xmlns="http://www.w3.org/2000/svg">
<path d="M28.6735 0.215668C29.8098 -0.235404 31.1046 0.0354282 31.9694 0.902191C32.8341 1.77048 33.1023 3.07163 32.653 4.21078L30.8747 8.72446C30.3415 8.61842 29.7904 8.56237 29.2263 8.56235C24.5655 8.56235 20.7869 12.3556 20.7868 17.035C20.7868 20.0715 22.3787 22.7334 24.7692 24.2293L22.0837 31.0516C21.5715 32.3571 20.2414 33.1488 18.8552 32.9764C17.4675 32.8008 16.3711 31.7105 16.1901 30.3172L14.4108 18.2772L2.67059 16.744C1.28442 16.5623 0.197399 15.463 0.0241089 14.0682C-0.149169 12.6765 0.63881 11.3427 1.93915 10.827L28.6735 0.215668Z" fill="#2F2F2F"/>
<path d="M29.2176 11.4927C30.3228 11.4776 31.4077 11.7918 32.335 12.3958C33.2624 12.9997 33.9905 13.8661 34.4274 14.8856C34.8643 15.905 34.9902 17.0316 34.7894 18.1228C34.5886 19.2141 34.0699 20.2211 33.299 21.0165C32.5282 21.8118 31.5397 22.3598 30.4587 22.5911C29.3776 22.8225 28.2525 22.7267 27.2257 22.3161C26.1988 21.9054 25.3163 21.1982 24.6897 20.2839C24.0632 19.3697 23.7207 18.2894 23.7056 17.1798L29.2938 17.1033L29.2176 11.4927Z" fill="#2F2F2F"/>
</svg>
