<svg width="23" height="21" viewBox="0 0 23 21" fill="none" xmlns="http://www.w3.org/2000/svg">
<g clip-path="url(#clip0_444_2800)">
<path d="M22.9985 0.500768H0V18.929C0.000203384 19.3456 0.165558 19.7451 0.459729 20.0396C0.7539 20.3342 1.15282 20.4998 1.56884 20.5H21.4312C21.8472 20.4998 22.2461 20.3342 22.5403 20.0396C22.8344 19.7451 22.9998 19.3456 23 18.929V0.5L22.9985 0.500768Z" fill="#F1F3F4"/>
<path d="M22.9985 0.500768H0V18.929C0.000203384 19.3456 0.165558 19.7451 0.459729 20.0396C0.7539 20.3342 1.15282 20.4998 1.56884 20.5H21.4312C21.8472 20.4998 22.2461 20.3342 22.5403 20.0396C22.8344 19.7451 22.9998 19.3456 23 18.929V0.5L22.9985 0.500768Z" fill="#F1F3F4"/>
<path d="M22.9992 0.50119H0V10.5542H22.9992V0.50119Z" fill="#E8EAED"/>
<path d="M14.109 4.79484H8.88978C8.75247 4.79494 8.61648 4.76793 8.4896 4.71536C8.36273 4.66279 8.24745 4.58569 8.15035 4.48846C8.05326 4.39123 7.97626 4.27579 7.92376 4.14874C7.87126 4.02169 7.84429 3.88553 7.84439 3.74803C7.84419 3.61047 7.87108 3.47422 7.92354 3.34708C7.97599 3.21994 8.05298 3.10441 8.15008 3.0071C8.24718 2.9098 8.3625 2.83262 8.48943 2.78001C8.61636 2.72739 8.7524 2.70035 8.88978 2.70045H14.109C14.2463 2.70035 14.3823 2.72736 14.5092 2.77993C14.6361 2.8325 14.7514 2.90961 14.8484 3.00683C14.9455 3.10406 15.0225 3.2195 15.075 3.34655C15.1275 3.4736 15.1545 3.60976 15.1544 3.74726C15.1544 4.02496 15.0443 4.2913 14.8483 4.48774C14.6522 4.68417 14.3863 4.79463 14.109 4.79484Z" fill="white"/>
<mask id="mask0_444_2800" style="mask-type:luminance" maskUnits="userSpaceOnUse" x="0" y="0" width="23" height="21">
<path d="M22.9985 0.500768H0V18.929C0.000203384 19.3456 0.165558 19.7451 0.459729 20.0396C0.7539 20.3342 1.15282 20.4998 1.56884 20.5H21.4312C21.8472 20.4998 22.2461 20.3342 22.5403 20.0396C22.8344 19.7451 22.9998 19.3456 23 18.929V0.5L22.9985 0.500768Z" fill="white"/>
</mask>
<g mask="url(#mask0_444_2800)">
<path d="M2.89941 13.9548L4.2687 18.1382L7.20145 21.4154L11.4997 13.9602H20.0999C19.2281 12.4488 17.9743 11.1937 16.4647 10.3212C14.9551 9.44863 13.2427 8.98927 11.4997 8.98927C9.7566 8.98927 8.04423 9.44863 6.53461 10.3212C5.02498 11.1937 3.77126 12.4488 2.89941 13.9602V13.9548Z" fill="url(#paint0_linear_444_2800)"/>
<path d="M11.4994 28.876L14.4314 25.5972L15.7976 21.4154H7.20122L2.90302 13.9548C2.03199 15.4666 1.57345 17.1812 1.57343 18.9266C1.5734 20.672 2.03191 22.3866 2.9029 23.8985C3.77389 25.4103 5.02673 26.6661 6.53564 27.5398C8.04454 28.4135 9.75642 28.8743 11.4994 28.876Z" fill="url(#paint1_linear_444_2800)"/>
<path d="M20.0995 13.9548H11.4993L15.7975 21.41L11.4993 28.8706C13.2419 28.8693 14.9535 28.4089 16.4623 27.5359C17.9712 26.6628 19.2241 25.4077 20.0955 23.8965C20.9668 22.3853 21.4259 20.6712 21.4266 18.9262C21.4273 17.1812 20.9696 15.4667 20.0995 13.9548Z" fill="url(#paint2_linear_444_2800)"/>
<path d="M11.4994 23.9017C14.2411 23.9017 16.4638 21.6754 16.4638 18.929C16.4638 16.1827 14.2411 13.9563 11.4994 13.9563C8.75759 13.9563 6.53494 16.1827 6.53494 18.929C6.53494 21.6754 8.75759 23.9017 11.4994 23.9017Z" fill="#F1F3F4"/>
<path d="M11.4994 22.9702C13.7275 22.9702 15.5336 21.1609 15.5336 18.929C15.5336 16.6971 13.7275 14.8878 11.4994 14.8878C9.27143 14.8878 7.46527 16.6971 7.46527 18.929C7.46527 21.1609 9.27143 22.9702 11.4994 22.9702Z" fill="#1A73E8"/>
</g>
<path opacity="0.1" d="M22.9992 10.5538H0V10.6845H22.9992V10.5538Z" fill="#BDC1C6"/>
<path opacity="0.1" d="M22.9992 10.4216H0V10.5523H22.9992V10.4216Z" fill="#BDC1C6"/>
</g>
<defs>
<linearGradient id="paint0_linear_444_2800" x1="2.91123" y1="15.2366" x2="20.1015" y2="15.2366" gradientUnits="userSpaceOnUse">
<stop stop-color="#D93025"/>
<stop offset="1" stop-color="#EA4335"/>
</linearGradient>
<linearGradient id="paint1_linear_444_2800" x1="12.8076" y1="28.5882" x2="4.17675" y2="13.6741" gradientUnits="userSpaceOnUse">
<stop stop-color="#1E8E3E"/>
<stop offset="1" stop-color="#34A853"/>
</linearGradient>
<linearGradient id="paint2_linear_444_2800" x1="18.8508" y1="14.3201" x2="10.2199" y2="29.2341" gradientUnits="userSpaceOnUse">
<stop stop-color="#FBBC04"/>
<stop offset="1" stop-color="#FCC934"/>
</linearGradient>
<clipPath id="clip0_444_2800">
<rect y="0.5" width="23" height="20" rx="2" fill="white"/>
</clipPath>
</defs>
</svg>
