<svg width="115" height="30" viewBox="0 0 115 30" fill="none" xmlns="http://www.w3.org/2000/svg">
<path d="M66.7502 3.41861V0L77.9828 4.53489V7.32559L66.7502 11.8605V8.3721L73.3083 5.93024L66.7502 3.41861Z" fill="#F5F9FF"/>
<path d="M4.72567 30.0001C2.35358 30.0001 0.400085 28.814 0.400085 26.1628V26.0233C0.400085 22.814 3.19079 21.6977 6.6094 21.6977H8.21405V21.0698C8.21405 19.7442 7.65591 18.9768 6.26056 18.9768C5.00474 18.9768 4.37684 19.6745 4.30707 20.6512H0.818691C1.09776 17.721 3.40009 16.3256 6.46986 16.3256C9.6094 16.3256 11.9117 17.6512 11.9117 20.9303V29.721H8.35359V28.1861C7.65591 29.1629 6.46986 30.0001 4.72567 30.0001ZM8.21405 25.3954V24.1396H6.74893C4.93498 24.1396 4.028 24.628 4.028 25.814V25.9535C4.028 26.8605 4.58614 27.4884 5.84195 27.4884C7.09777 27.4187 8.21405 26.721 8.21405 25.3954ZM20.2141 30.0001C16.5862 30.0001 13.935 27.7675 13.935 23.3024V23.0931C13.935 18.6279 16.7257 16.2558 20.2141 16.2558C23.2141 16.2558 25.6559 17.7907 25.935 21.2093H22.4466C22.2373 19.9535 21.5397 19.1163 20.2838 19.1163C18.749 19.1163 17.6327 20.3721 17.6327 22.9535V23.3721C17.6327 26.0233 18.6094 27.2094 20.2838 27.2094C21.5397 27.2094 22.4466 26.3024 22.6559 24.8373H26.0048C25.7955 27.907 23.7722 30.0001 20.2141 30.0001ZM33.8885 30.0001C30.2606 30.0001 27.6094 27.7675 27.6094 23.3024V23.0931C27.6094 18.6279 30.4001 16.2558 33.8885 16.2558C36.8885 16.2558 39.3304 17.7907 39.6095 21.2093H36.1211C35.9118 19.9535 35.2141 19.1163 33.9583 19.1163C32.4234 19.1163 31.3071 20.3721 31.3071 22.9535V23.3721C31.3071 26.0233 32.2839 27.2094 33.9583 27.2094C35.2141 27.2094 36.1211 26.3024 36.3304 24.8373H39.6792C39.4699 27.907 37.4467 30.0001 33.8885 30.0001ZM47.6327 30.0001C43.8653 30.0001 41.2839 27.7675 41.2839 23.3721V23.0931C41.2839 18.6977 44.0048 16.2558 47.5629 16.2558C50.842 16.2558 53.563 18.0698 53.563 22.4652V24.0698H44.9816C45.1211 26.4419 46.1676 27.3489 47.7025 27.3489C49.0978 27.3489 49.8653 26.5815 50.1444 25.6745H53.563C53.1444 28.1163 51.0513 30.0001 47.6327 30.0001ZM45.0513 21.628H49.935C49.8653 19.6745 48.9583 18.8372 47.4932 18.8372C46.3769 18.907 45.3304 19.5349 45.0513 21.628ZM55.7955 16.6047H59.4932V18.5582C60.1211 17.3024 61.4467 16.3256 63.47 16.3256C65.8421 16.3256 67.4467 17.7907 67.4467 20.9303V29.721H63.749V21.4884C63.749 19.9535 63.1211 19.2559 61.7955 19.2559C60.5397 19.2559 59.4932 20.0233 59.4932 21.6977V29.721H55.7955V16.6047ZM74.2142 12.6279V16.6047H76.7258V19.3256H74.2142V25.5349C74.2142 26.5117 74.6328 27.0001 75.5397 27.0001C76.0979 27.0001 76.4467 26.9303 76.7956 26.7908V29.6512C76.377 29.7908 75.6095 29.9303 74.7025 29.9303C71.8421 29.9303 70.5165 28.6047 70.5165 25.9535V19.3256H68.9816V16.6047H70.5165V14.1628L74.2142 12.6279ZM90.5398 29.721H86.9119V27.7675C86.2839 29.0233 85.0281 30.0001 83.0746 30.0001C80.7025 30.0001 78.9583 28.5349 78.9583 25.4652V16.6047H82.656V24.9768C82.656 26.5117 83.2839 27.2094 84.5398 27.2094C85.7956 27.2094 86.8421 26.3721 86.8421 24.7675V16.6047H90.5398V29.721ZM93.2607 16.6047H96.9584V19.0465C97.7258 17.3024 98.9816 16.4651 100.935 16.4651V20.0931C98.4235 20.0931 96.9584 20.8605 96.9584 23.0233V29.7908H93.2607V16.6047ZM108.4 30.0001C104.633 30.0001 102.051 27.7675 102.051 23.3721V23.0931C102.051 18.6977 104.772 16.2558 108.33 16.2558C111.61 16.2558 114.331 18.0698 114.331 22.4652V24.0698H105.819C105.958 26.4419 107.005 27.3489 108.54 27.3489C109.935 27.3489 110.703 26.5815 110.982 25.6745H114.4C113.842 28.1163 111.819 30.0001 108.4 30.0001ZM105.749 21.628H110.703C110.633 19.6745 109.726 18.8372 108.261 18.8372C107.144 18.907 106.098 19.5349 105.749 21.628Z" fill="#F5F9FF"/>
</svg>
