<svg width="115" height="30" viewBox="0 0 115 30" fill="none" xmlns="http://www.w3.org/2000/svg">
<path d="M12.9409 0H0.400269V30L12.9409 0Z" fill="#F5F9FF"/>
<path d="M21.7654 0H34.2897V30L21.7654 0Z" fill="#F5F9FF"/>
<path d="M17.3528 11.0569L25.3347 30H20.0979L17.7123 23.9689H11.8709L17.3528 11.0569Z" fill="#F5F9FF"/>
<path d="M54.7459 19.0776L56.2246 23.319C56.2736 23.4252 56.3471 23.4743 56.4779 23.4743H59.3209C59.4762 23.4743 59.5007 23.4007 59.4762 23.2455L53.6021 6.92566C53.5776 6.7949 53.5531 6.77039 53.4224 6.77039H49.893C49.795 6.77039 49.7378 6.84393 49.7378 6.95017C49.6888 7.80825 49.6152 8.06976 49.509 8.32309L44.2722 23.2209C44.2477 23.4007 44.3049 23.4743 44.452 23.4743H46.9927C47.148 23.4743 47.2215 23.4252 47.2787 23.27L48.6757 19.0776H54.7459ZM49.4845 16.3073C50.2525 13.9864 51.2655 11.0117 51.674 9.31193H51.6985C52.2051 11.0935 53.3979 14.6238 53.9371 16.3073H49.4845Z" fill="#F5F9FF"/>
<path d="M67.0296 23.728C68.5574 23.728 70.1832 23.4501 71.8334 22.7391C71.9642 22.6901 71.9887 22.6329 71.9887 22.5103C71.9396 22.0527 71.8825 21.3907 71.8825 20.884V5.52039C71.8825 5.42232 71.8825 5.37329 71.7599 5.37329H68.9904C68.8842 5.37329 68.8351 5.42232 68.8351 5.55308V10.7587C68.4021 10.7097 68.0999 10.6852 67.7404 10.6852C63.2715 10.6852 60.5265 13.6353 60.5265 17.321C60.5265 21.595 63.3451 23.728 67.0296 23.728ZM68.8351 20.884C68.3776 21.0311 67.8711 21.0884 67.3564 21.0884C65.3303 21.0884 63.6718 19.9442 63.6718 17.1657C63.6718 14.7059 65.3793 13.2513 67.6424 13.2513C68.0999 13.2513 68.5002 13.3003 68.8351 13.431V20.884Z" fill="#F5F9FF"/>
<path d="M80.8239 10.6852C77.0086 10.6852 74.6476 13.6108 74.6476 17.2229C74.6476 20.4509 76.5266 23.7279 80.7667 23.7279C84.3533 23.7279 86.8696 21.0883 86.8696 17.1412C86.8696 13.6598 84.7372 10.6852 80.8239 10.6852ZM80.6687 13.2512C82.8255 13.2512 83.7405 15.1063 83.7405 17.2229C83.7405 19.838 82.3925 21.1374 80.8239 21.1374C78.8877 21.1374 77.7439 19.5111 77.7439 17.1657C77.7439 14.7549 78.9612 13.2512 80.6687 13.2512Z" fill="#F5F9FF"/>
<path d="M89.7316 5.37329C89.6254 5.37329 89.5519 5.42232 89.5519 5.55308V22.9434C89.5519 23.017 89.6254 23.1477 89.7316 23.1722C90.9489 23.5482 92.2234 23.728 93.5387 23.728C97.305 23.728 100.965 21.3907 100.965 16.6836C100.965 13.2758 98.6285 10.6852 94.9684 10.6852C94.1269 10.6852 93.3427 10.8159 92.6564 11.0448L92.6237 5.57759C92.6237 5.39781 92.5747 5.37329 92.395 5.37329H89.7316ZM97.836 16.9941C97.836 19.8135 95.908 21.1374 93.8247 21.1374C93.3917 21.1374 93.0077 21.1129 92.6564 21.0066V13.5863C93.0567 13.431 93.5387 13.3003 94.4292 13.3003C96.439 13.3003 97.836 14.5751 97.836 16.9941Z" fill="#F5F9FF"/>
<path d="M111.301 17.9094C112.543 17.9094 113.564 17.8848 113.916 17.8031C114.046 17.7786 114.095 17.7296 114.12 17.6233C114.193 17.3455 114.226 16.7653 114.226 16.0543C114.226 13.6353 112.772 10.6852 109.014 10.6852C105.174 10.6852 103.042 13.8151 103.042 17.3455C103.042 20.4754 104.692 23.7279 109.316 23.7279C111.048 23.7279 112.167 23.4501 113.131 22.9924C113.229 22.9434 113.278 22.8617 113.278 22.7146V20.598C113.278 20.4754 113.205 20.4509 113.131 20.4999C112.167 20.9085 111.122 21.1129 109.978 21.1129C107.388 21.1129 106.212 19.6827 106.138 17.9094H111.301ZM106.138 15.7192C106.342 14.4771 107.127 13.1287 108.883 13.1287C110.819 13.1287 111.326 14.7549 111.326 15.4904C111.326 15.5149 111.326 15.6212 111.326 15.6947C111.22 15.7192 110.893 15.7192 109.929 15.7192H106.138Z" fill="#F5F9FF"/>
</svg>
