<svg width="131" height="30" viewBox="0 0 131 30" fill="none" xmlns="http://www.w3.org/2000/svg">
<path d="M39.7422 21.4504C40.9635 20.7526 41.7407 19.4361 41.7407 17.8342C41.7407 14.2814 39.1871 13.1077 34.6666 13.1077H26.8153V25.146H30.6696V22.6241H34.6824C35.2852 22.6241 35.8562 22.5924 36.3797 22.529C37.0933 23.2268 37.7119 24.353 37.9657 25.1302H41.9628C41.5345 23.8454 40.6939 22.3228 39.7422 21.4504ZM34.857 19.8485H30.6696V15.8833H34.857C36.8872 15.8833 38.0451 16.2481 38.0451 17.8342C38.0292 19.4361 36.8872 19.8485 34.857 19.8485Z" fill="#F5F9FF"/>
<path d="M23.7084 13.1077H19.8541V25.146H23.7084V13.1077Z" fill="#F5F9FF"/>
<path d="M54.7631 13.1077H50.9088V25.146H54.7631V13.1077Z" fill="#F5F9FF"/>
<path d="M97.9487 13.1077H94.0947V25.146H97.9487V13.1077Z" fill="#F5F9FF"/>
<path d="M84.0569 13.1077H76.4438V25.146H84.0569C88.5299 25.146 91.829 23.1317 91.829 19.1189C91.829 15.1061 88.5299 13.1077 84.0569 13.1077ZM83.5976 22.2752H80.2978V15.9785H83.5976C86.4682 15.9785 87.9912 16.9935 87.9912 19.1189C87.9912 21.2443 86.4682 22.2752 83.5976 22.2752Z" fill="#F5F9FF"/>
<path d="M69.6377 18.5955C67.3375 16.0261 64.5619 14.1704 61.1201 13.1077H57.8526V25.146H61.5483V17.0094C65.0695 18.1514 68.3208 21.736 69.9233 25.146H73.3172V13.1077H69.6215V18.5955H69.6377Z" fill="#F5F9FF"/>
<path d="M6.84451 13.1077C4.30671 15.9785 0.737915 20.816 0.737915 25.146H4.57633C4.57633 24.4957 4.65568 23.8296 4.81423 23.1793H13.5537C13.7123 23.8454 13.7917 24.4957 13.7917 25.146H17.63C17.63 20.816 14.0613 15.9785 11.5235 13.1077H6.84451ZM5.68661 20.6415C6.62244 18.5955 7.98651 16.6922 9.17606 15.3123C10.3657 16.6922 11.7297 18.5955 12.6655 20.6415H5.68661Z" fill="#F5F9FF"/>
<path d="M110.956 13.1077H106.277C103.739 15.9785 100.17 20.816 100.17 25.146H104.009C104.009 24.4957 104.087 23.8296 104.246 23.1793H112.986C113.145 23.8454 113.223 24.4957 113.223 25.146H117.062C117.062 20.8001 113.494 15.9785 110.956 13.1077ZM105.119 20.6415C106.054 18.5955 107.419 16.6922 108.608 15.3123C109.798 16.6922 111.162 18.5955 112.097 20.6415H105.119Z" fill="#F5F9FF"/>
<path d="M130.576 20.7214C130.893 18.374 130.322 16.3438 129.846 15.0115C129.513 14.0757 129.243 13.3303 129.005 12.6641C127.927 9.63475 127.721 9.07954 126.975 6.05021L126.721 5.05095L125.738 4.73371C122.756 3.76626 122.232 3.52829 119.282 2.21188C118.632 1.92636 117.902 1.5933 116.998 1.1968C115.935 0.736842 114.318 0.102369 112.367 0.0389214C109.369 -0.0720728 106.498 1.14917 103.818 3.65519L103.866 3.63936C103.183 4.24203 102.485 4.93996 101.771 5.74879C101.771 5.74879 101.788 5.79642 101.946 5.66952C102.882 4.90823 105.943 2.05326 114.27 5.79642C118.362 7.63623 122.296 9.26989 122.296 9.26989C122.296 9.26989 123.581 13.3144 125.056 17.5651C128.053 26.1775 124.945 28.9849 124.104 29.8413C123.977 29.9841 124.025 29.9999 124.025 29.9999C125.23 29.1276 126.198 28.2553 127.007 27.3988C129.037 25.3528 130.242 23.1164 130.576 20.7214Z" fill="#F5F9FF"/>
<path d="M126.739 5.01896L125.756 4.70173C122.774 3.73427 122.251 3.49631 119.301 2.17989C118.65 1.89438 117.92 1.56132 117.017 1.16481C115.954 0.704859 114.336 0.0703862 112.385 0.00693896C109.387 -0.104055 106.516 1.11719 103.836 3.6232L103.883 3.60738C103.201 4.21005 102.504 4.90797 101.79 5.71681C101.79 5.71681 101.805 5.76443 101.964 5.63754C102.9 4.87625 105.961 2.02127 114.288 5.76443C118.381 7.60425 122.314 9.2379 122.314 9.2379L126.739 5.01896Z" fill="#F5F9FF"/>
</svg>
