<svg width="101" height="30" viewBox="0 0 101 30" fill="none" xmlns="http://www.w3.org/2000/svg">
<path d="M62.2855 23.4609C56.5001 27.725 48.1146 30 40.8948 30C30.7714 30 21.6578 26.256 14.7631 20.0289C14.2214 19.5393 14.7067 18.8719 15.3568 19.2533C22.7976 23.5823 31.9979 26.1866 41.5015 26.1866C47.9109 26.1866 54.9617 24.8606 61.4448 22.1089C62.4242 21.6929 63.2432 22.7503 62.2855 23.4609Z" fill="#F5F9FF"/>
<path d="M64.6938 20.709C63.9571 19.7643 59.8055 20.2627 57.942 20.4837C57.3743 20.553 57.2877 20.059 57.799 19.7037C61.1056 17.3767 66.5313 18.0483 67.164 18.8283C67.7967 19.6127 66.9993 25.051 63.8921 27.6467C63.4154 28.0454 62.9604 27.833 63.1727 27.3044C63.8704 25.5624 65.4349 21.658 64.6938 20.709Z" fill="#F5F9FF"/>
<path d="M58.0715 3.27615V1.01414C58.0715 0.671806 58.3315 0.442139 58.6435 0.442139H68.7712C69.0962 0.442139 69.3562 0.67614 69.3562 1.01414V2.95115C69.3519 3.27615 69.0789 3.70081 68.5935 4.37248L63.3455 11.8648C65.2956 11.8172 67.3541 12.1075 69.1222 13.1042C69.5209 13.3295 69.6293 13.6588 69.6596 13.9839V16.3975C69.6596 16.7269 69.2956 17.1125 68.9142 16.9132C65.7983 15.2795 61.6597 15.1019 58.2145 16.9305C57.8635 17.1212 57.4951 16.7399 57.4951 16.4105V14.1182C57.4951 13.7499 57.4994 13.1215 57.8678 12.5625L63.9479 3.84382H58.6565C58.3315 3.84382 58.0715 3.61415 58.0715 3.27615Z" fill="#F5F9FF"/>
<path d="M21.1301 17.3893H18.0489C17.7542 17.3676 17.5202 17.1466 17.4985 16.865V1.05258C17.4985 0.73625 17.7629 0.484913 18.0922 0.484913H20.9654C21.2645 0.497905 21.5028 0.727581 21.5245 1.01358V3.08059H21.5808C22.3305 1.08291 23.7389 0.151245 25.6371 0.151245C27.5655 0.151245 28.7703 1.08291 29.637 3.08059C30.3824 1.08291 32.0768 0.151245 33.8926 0.151245C35.184 0.151245 36.5968 0.684247 37.4592 1.88025C38.4342 3.21059 38.2349 5.14326 38.2349 6.8376L38.2306 16.8173C38.2306 17.1336 37.9662 17.3893 37.6369 17.3893H34.56C34.2523 17.3676 34.0053 17.1206 34.0053 16.8173V8.43661C34.0053 7.76927 34.066 6.10527 33.9186 5.4726C33.6889 4.41093 32.9999 4.11192 32.1072 4.11192C31.3618 4.11192 30.5817 4.61026 30.2654 5.4076C29.949 6.20494 29.9794 7.5396 29.9794 8.43661V16.8173C29.9794 17.1336 29.715 17.3893 29.3857 17.3893H26.3088C25.9968 17.3676 25.7541 17.1206 25.7541 16.8173L25.7497 8.43661C25.7497 6.67294 26.0401 4.07726 23.8516 4.07726C21.6371 4.07726 21.7238 6.60793 21.7238 8.43661V16.8173C21.7238 17.1336 21.4595 17.3893 21.1301 17.3893Z" fill="#F5F9FF"/>
<path d="M78.0767 0.151245C82.6487 0.151245 85.1232 4.07726 85.1232 9.06928C85.1232 13.8923 82.3887 17.7186 78.0767 17.7186C73.5871 17.7186 71.1429 13.7926 71.1429 8.90028C71.1429 3.97759 73.6174 0.151245 78.0767 0.151245ZM78.1027 3.37959C75.8319 3.37959 75.6889 6.4736 75.6889 8.40194C75.6889 10.3346 75.6586 14.46 78.0767 14.46C80.4646 14.46 80.5772 11.132 80.5772 9.10394C80.5772 7.76927 80.5209 6.1746 80.1179 4.90926C79.7712 3.80859 79.0821 3.37959 78.1027 3.37959Z" fill="#F5F9FF"/>
<path d="M91.0409 17.3893H87.9727C87.665 17.3676 87.418 17.1206 87.418 16.8173L87.4137 1.00058C87.4397 0.710247 87.6954 0.484913 88.0074 0.484913H90.8633C91.1319 0.497905 91.3529 0.679915 91.4136 0.926915V3.34492H91.47C92.3324 1.18258 93.5414 0.151245 95.6692 0.151245C97.0517 0.151245 98.3994 0.649581 99.2661 2.01458C100.072 3.27992 100.072 5.4076 100.072 6.93727V16.891C100.038 17.1683 99.7818 17.3893 99.4785 17.3893H96.3886C96.1069 17.3676 95.8729 17.1596 95.8426 16.891V8.30228C95.8426 6.57327 96.0419 4.04259 93.9141 4.04259C93.1644 4.04259 92.4754 4.54526 92.133 5.30793C91.6996 6.27427 91.6433 7.23627 91.6433 8.30228V16.8173C91.639 17.1336 91.3703 17.3893 91.0409 17.3893Z" fill="#F5F9FF"/>
<path d="M49.9884 9.8367V9.16936C47.7609 9.16936 45.4077 9.64603 45.4077 12.272C45.4077 13.6024 46.0968 14.5037 47.2798 14.5037C48.1466 14.5037 48.9223 13.9707 49.412 13.104C50.0187 12.038 49.9884 11.037 49.9884 9.8367ZM53.0956 17.3464C52.8919 17.5284 52.5972 17.5414 52.3675 17.4201C51.3448 16.5707 51.1628 16.1764 50.5994 15.3661C48.9093 17.0907 47.7132 17.6064 45.5204 17.6064C42.9289 17.6064 40.9094 16.0074 40.9094 12.805C40.9094 10.3047 42.2658 8.6017 44.1943 7.76969C45.8671 7.03302 48.2029 6.90302 49.9884 6.69936V6.30069C49.9884 5.56835 50.0447 4.70168 49.6157 4.06902C49.2386 3.50134 48.5193 3.26734 47.8865 3.26734C46.7121 3.26734 45.6634 3.86968 45.4077 5.11768C45.3557 5.39502 45.152 5.66802 44.8747 5.68102L41.8845 5.36035C41.6331 5.30402 41.3558 5.10035 41.4251 4.71468C42.1142 1.09201 45.3861 0 48.3156 0C49.815 0 51.7738 0.398668 52.9569 1.534C54.4563 2.93368 54.3133 4.80135 54.3133 6.83369V11.635C54.3133 13.078 54.9113 13.7107 55.4747 14.4907C55.6741 14.768 55.7174 15.1017 55.4661 15.3097C54.8377 15.8341 53.7196 16.8091 53.1042 17.3551L53.0956 17.3464Z" fill="#F5F9FF"/>
<path d="M9.59993 9.8367V9.16936C7.37245 9.16936 5.01929 9.64603 5.01929 12.272C5.01929 13.6024 5.70834 14.5037 6.89142 14.5037C7.75814 14.5037 8.53386 13.9707 9.02356 13.104C9.63026 12.038 9.59993 11.037 9.59993 9.8367ZM12.7071 17.3464C12.5035 17.5284 12.2088 17.5414 11.9791 17.4201C10.9564 16.5707 10.7743 16.1764 10.211 15.3661C8.52086 17.0907 7.32478 17.6064 5.13197 17.6064C2.54046 17.6064 0.520996 16.0074 0.520996 12.805C0.520996 10.3047 1.87742 8.6017 3.80588 7.76969C5.47866 7.03302 7.81448 6.90302 9.59993 6.69936V6.30069C9.59993 5.56835 9.65627 4.70168 9.22724 4.06902C8.85021 3.50134 8.13083 3.26734 7.49812 3.26734C6.32371 3.26734 5.27498 3.86968 5.01929 5.11768C4.96729 5.39502 4.76361 5.66802 4.48626 5.68102L1.49606 5.36035C1.24471 5.30402 0.967358 5.10035 1.0367 4.71468C1.72574 1.09201 4.99762 0 7.92715 0C9.42658 0 11.3854 0.398668 12.5685 1.534C14.0679 2.93368 13.9249 4.80135 13.9249 6.83369V11.635C13.9249 13.078 14.5229 13.7107 15.0863 14.4907C15.2856 14.768 15.329 15.1017 15.0776 15.3097C14.4492 15.8341 13.3312 16.8091 12.7158 17.3551L12.7071 17.3464Z" fill="#F5F9FF"/>
</svg>
