<svg width="193" height="30" viewBox="0 0 193 30" fill="none" xmlns="http://www.w3.org/2000/svg">
<path d="M67.498 17.7509C73.8884 17.7509 77.0836 13.3135 77.0836 8.87577C77.0836 4.4384 73.8882 0.17775 67.143 0.17775C62.1727 0 43.8889 0 43.8889 0V29.9996H49.5685V4.79304C54.0064 4.79304 65.1896 4.79304 67.4974 4.79304C70.6925 4.79304 72.2902 5.85764 72.2902 8.87577C72.2902 11.3606 70.6928 12.7808 67.6749 12.7808H52.7646L70.5158 29.8213H77.439L64.6576 17.3957C65.9006 17.7509 67.3206 17.7509 67.498 17.7509Z" fill="#F5F9FF"/>
<path d="M88.4445 0.000976562H82.9417V30H88.4445V0.000976562Z" fill="#F5F9FF"/>
<path d="M158.206 4.61627V0.000976562H146.49H140.987H131.224L128.029 4.61627H140.987V30H146.49V4.61627H158.206Z" fill="#F5F9FF"/>
<path d="M117.202 12.4264C114.362 12.4264 107.262 12.4264 103.178 12.4264C100.339 12.4264 98.7406 11.1841 98.7406 8.69866C98.7406 5.8588 100.693 4.61627 103.178 4.61627C107.084 4.61627 122.349 4.61627 122.349 4.61627L124.834 0.000976562C124.834 0.000976562 106.196 0.000976562 103.001 0.000976562C98.0299 0.000976562 93.9477 3.72821 93.9477 8.87675C93.9477 13.4915 97.853 17.2191 103.178 17.2191C106.196 17.2191 115.249 17.2191 117.202 17.2191C120.397 17.2191 122.172 18.6397 122.172 21.3022C122.172 23.6095 120.219 25.2075 117.202 25.2075H97.8532L95.0133 30C95.0133 30 112.054 30 117.912 30C123.77 30 126.964 25.7406 126.964 20.9477C126.965 16.5088 123.237 12.4264 117.202 12.4264Z" fill="#F5F9FF"/>
<path d="M17.9708 1.95283C16.7285 3.9048 0.219635 29.9994 0.219635 29.9994H6.07733L11.5806 21.1238H23.2963L26.3141 16.3309H14.598L20.9883 6.03522L35.8996 29.8211H41.7575C41.7575 29.8211 25.426 4.08255 24.0056 1.77508C22.4082 -0.532046 19.5685 -0.354814 17.9708 1.95283Z" fill="#F5F9FF"/>
<path d="M186.43 30.0001H192.288C192.288 30.0001 175.957 4.2612 174.536 1.95355C172.94 -0.709248 170.099 -0.531325 168.501 1.77598C167.258 3.72812 150.75 29.822 150.75 29.822H156.607L162.11 20.9469H174.004L177.021 16.1541H165.306L171.696 5.85819L186.43 30.0001Z" fill="#F5F9FF"/>
</svg>
