<svg width="166" height="30" viewBox="0 0 166 30" fill="none" xmlns="http://www.w3.org/2000/svg">
<path d="M4.46879 29.7142H0.460205V17.537H4.46879C8.70977 17.537 10.9828 19.6088 10.9828 23.6173C10.9828 27.5916 9.09465 29.7142 4.46879 29.7142ZM4.17832 19.3895H2.86391V27.861H4.14927C7.46071 27.9286 8.52822 26.3121 8.52822 23.634C8.52822 20.6864 6.99595 19.3895 4.17832 19.3895Z" fill="#F5F9FF"/>
<path d="M14.6571 24.5774C14.7224 23.4657 15.2671 22.4381 16.5234 22.4381C17.7434 22.4381 18.3461 23.3473 18.2953 24.5774H14.6571ZM16.596 21.0068C13.3935 21.0068 12.2824 23.2805 12.2824 25.4191C12.2824 27.9629 13.5605 29.8655 16.291 29.9497C18.4623 29.9671 20.3867 29.3099 20.5174 26.9353H18.2953C18.2953 27.8953 17.5183 28.5184 16.6105 28.5184C15.0783 28.5184 14.5917 27.3899 14.5699 26.0087L20.7063 25.992C20.8878 23.4657 19.7912 21.0068 16.596 21.0068Z" fill="#F5F9FF"/>
<path d="M30.5587 29.7143H28.2639L28.2494 28.3331C27.8645 29.4275 26.797 29.9838 25.4899 29.9838C23.9358 29.9838 22.4689 29.0404 22.4544 26.7835V21.3096H24.7782V26.4632C24.7637 27.676 25.2357 28.3499 26.3758 28.3666C27.407 28.3666 28.2494 27.7769 28.2494 26.1437V21.3096H30.5587V29.7143Z" fill="#F5F9FF"/>
<path d="M33.5388 21.3435V20.0124L35.7827 18.8339V21.3435H37.925V22.9767H35.7827V27.036C35.7827 27.861 36.0659 28.333 36.9083 28.3664C37.2278 28.3664 37.5183 28.3998 37.9395 28.2821V29.7309C36.843 29.8826 35.5794 30.1688 34.5337 29.6125C33.7421 29.192 33.5388 28.4506 33.5388 27.272V22.9767H31.7378V21.3435H33.5388Z" fill="#F5F9FF"/>
<path d="M46.6434 26.093C47.0138 26.8344 46.9993 27.8111 46.5418 28.485C45.7502 29.697 44.0291 30.0006 42.7002 29.9671C40.8121 29.8488 39.1346 29.3608 39.2145 27.1038H41.5092C41.4875 28.0805 42.0975 28.4342 42.9689 28.4676C43.8113 28.4676 44.6537 28.1815 44.6537 27.4067C44.6537 26.7836 44.0654 26.5142 43.3102 26.3457C42.446 26.1605 41.8288 26.0763 40.8629 25.6885C40.0932 25.3182 39.3307 24.6951 39.3307 23.5165C39.3307 22.5391 40.0932 21.7984 41.088 21.3939C41.7561 21.1078 42.584 21.0236 43.2957 21.0236C44.8933 21.0236 46.6289 21.5791 46.5272 23.6H44.3704C44.3704 23.2972 44.3051 22.9603 44.0509 22.7584C43.5789 22.3372 42.1265 22.2864 41.6763 22.977C41.1679 24.1563 42.7365 24.2405 44.4721 24.7118C45.5687 24.9645 46.3094 25.4191 46.6434 26.093Z" fill="#F5F9FF"/>
<path d="M52.389 20.9894C54.2263 20.9894 56.1289 21.8317 56.1289 24.1395L53.8704 24.1221C53.8704 23.0445 53.2822 22.3873 52.1711 22.4381C51.8806 22.4548 51.5756 22.5557 51.3287 22.6908C50.6316 23.0953 50.4137 24.2238 50.4137 25.3522C50.4137 26.5475 50.7042 27.7101 51.2271 28.1306C51.5756 28.4675 52.2002 28.5692 52.7376 28.4675C53.6308 28.3165 53.8995 27.44 53.9213 26.6826L56.1289 26.6659C56.1579 29.0739 54.1899 29.9838 52.1348 29.9497C49.3898 29.8487 48.1262 28.0638 48.1262 25.4191C48.1262 22.7416 49.6585 20.9894 52.389 20.9894Z" fill="#F5F9FF"/>
<path d="M57.9059 17.5536H60.2297V22.6397C60.8397 21.5621 61.7475 21.0908 62.9747 21.0908C64.5288 21.0908 65.9957 22.2527 65.9957 23.92V29.7141H63.7009V24.5597C63.7009 23.4146 63.2144 22.6572 62.1178 22.6572C61.0939 22.6572 60.2152 23.3303 60.2152 24.88V29.7141H57.9059V17.5536Z" fill="#F5F9FF"/>
<path d="M70.1783 24.5774C70.2437 23.4657 70.781 22.4381 72.0446 22.4381C73.2574 22.4381 73.8674 23.3473 73.8165 24.5774H70.1783ZM72.1172 21.0068C68.9147 21.0068 67.8036 23.2805 67.8036 25.4191C67.8036 27.9629 69.0817 29.8655 71.8122 29.9497C73.9836 29.9671 75.908 29.3099 76.0387 26.9353H73.8165C73.8165 27.8953 73.0395 28.5184 72.1318 28.5184C70.5995 28.5184 70.1129 27.3899 70.0912 26.0087L76.2275 25.992C76.409 23.4657 75.3125 21.0068 72.1172 21.0068Z" fill="#F5F9FF"/>
<path d="M90.552 29.3605C89.7677 29.6125 88.751 29.7142 87.6617 29.7142H83.261V17.5703H87.9449C90.0364 17.5703 92.2222 18.2275 92.3094 20.5687C92.3602 22.0508 91.3508 22.9934 90.0872 23.4146C91.0603 23.6673 91.8519 23.9534 92.3892 24.8633C92.8613 25.6715 92.8976 26.7499 92.5127 27.6424C92.106 28.4848 91.4815 29.0403 90.552 29.3605ZM87.9449 19.3894H85.5703V22.5388H87.9812C89.2448 22.5388 89.8984 22.0167 89.8984 20.9892C89.8984 20.0292 89.1432 19.3894 87.9449 19.3894ZM88.1846 24.3579L85.5703 24.3412V27.9118H88.0974C89.7822 27.9118 90.3196 27.0861 90.3196 26.0593C90.3196 25.2678 89.7459 24.3412 88.1846 24.3579Z" fill="#F5F9FF"/>
<path d="M97.9005 28.5016C97.0436 28.4341 96.5353 28.0129 96.5353 27.2047C96.5498 25.4365 98.7937 25.6216 99.9556 25.6216C100.006 27.0195 99.8903 28.4675 97.9005 28.5016ZM102.163 23.6174C102.163 21.8992 100.311 21.0402 98.1692 21.0569C96.1286 21.091 94.6471 21.7475 94.6181 23.7183H96.8548C96.8039 22.8084 97.4285 22.3371 98.2563 22.3204C99.4981 22.3204 100.057 22.8927 99.9411 24.308C98.7066 24.3748 97.0581 24.2905 95.8308 24.8635C94.9376 25.2847 94.2477 26.0762 94.2477 27.339C94.2477 28.9562 95.3733 29.9329 97.0218 29.9838C98.2055 30.1014 99.549 29.5793 100.072 28.4849L100.159 29.7144H102.163C102.163 27.676 102.163 25.6717 102.163 23.6174Z" fill="#F5F9FF"/>
<path d="M104.399 21.3096H106.722V22.6574C107.332 21.5623 108.444 21.0911 109.693 21.0911C111.087 21.0911 112.518 21.8993 112.518 23.9202V29.7144H110.194V24.56C110.208 23.4657 109.671 22.6574 108.611 22.6574C107.565 22.6574 106.708 23.3306 106.708 24.8802V29.7144H104.399V21.3096Z" fill="#F5F9FF"/>
<path d="M120.656 29.7141L117.12 24.8967L120.322 21.3094H123.053L119.734 24.8125L123.641 29.7141H120.656ZM114.767 17.5536H117.054V29.7141H114.767V17.5536Z" fill="#F5F9FF"/>
<path d="M135.956 0H165.534V29.697H135.956V0ZM153.93 7.03375L142.376 22.5398H147.597L159.195 7.03375H153.93ZM140.074 25.5839H161.417V4.11379H140.074V25.5839Z" fill="#F5F9FF"/>
</svg>
