<svg width="158" height="30" viewBox="0 0 158 30" fill="none" xmlns="http://www.w3.org/2000/svg">
<path d="M36.2769 0.00830078C35.3395 0.00830078 34.5847 0.762637 34.5847 1.70004V22.3528C34.5847 23.2902 35.3395 24.0445 36.2769 24.0445H49.2628C49.5081 24.0445 49.7056 23.8472 49.7056 23.6019V21.2329C49.7056 20.9876 49.5081 20.7901 49.2628 20.7901H38.2204V13.2373H48.1496C48.3949 13.2373 48.5922 13.0399 48.5922 12.7946V10.5559C48.5922 10.3107 48.3949 10.1133 48.1496 10.1133H38.2204V3.18635H49.2628C49.5081 3.18635 49.7056 2.989 49.7056 2.74375V0.450907C49.7056 0.205656 49.5081 0.00830078 49.2628 0.00830078H36.2769Z" fill="#F5F9FF"/>
<path d="M80.1181 6.02539C77.0282 6.02539 75.1096 7.08952 73.825 8.85878V7.01034C73.825 6.76509 73.6275 6.56761 73.3823 6.56761H70.7084C70.4631 6.56761 70.2656 6.76509 70.2656 7.01034V29.5572C70.2656 29.8025 70.4631 30 70.7084 30H73.4285C73.6737 30 73.8712 29.8025 73.8712 29.5572V21.8439C75.063 23.5598 76.9944 24.5757 80.1181 24.5757C85.3716 24.5757 88.6428 20.4176 88.6428 15.2951C88.6428 10.1726 85.4392 6.02539 80.1181 6.02539ZM79.3551 9.00816C83.1347 9.00816 84.9942 11.8229 84.9942 15.2951C84.9942 18.7673 83.1347 21.582 79.3551 21.582C75.5756 21.582 73.716 18.7673 73.7161 15.2951C73.716 11.8229 75.5756 9.00816 79.3551 9.00816Z" fill="#F5F9FF"/>
<path d="M132.882 6.56799H135.571C135.817 6.56799 136.014 6.76544 136.014 7.01069V23.6021C136.014 23.8474 135.817 24.0448 135.571 24.0448H132.882C132.637 24.0448 132.439 23.8474 132.439 23.6021V7.01069C132.439 6.76544 132.637 6.56799 132.882 6.56799Z" fill="#F5F9FF"/>
<path d="M132.846 0H135.613C135.858 0 136.055 0.197437 136.055 0.442685V3.2093C136.055 3.45455 135.858 3.65199 135.613 3.65199H132.846C132.601 3.65199 132.404 3.45455 132.404 3.2093V0.442685C132.404 0.197437 132.601 0 132.846 0Z" fill="#F5F9FF"/>
<path d="M118.734 24.5758C121.824 24.5758 123.743 23.5117 125.027 21.7424V23.6018C125.027 23.8471 125.225 24.0446 125.47 24.0446H128.144C128.389 24.0446 128.586 23.8471 128.586 23.6018V0.451029C128.586 0.205778 128.389 0.00830078 128.144 0.00830078H125.424C125.178 0.00830078 124.981 0.205778 124.981 0.451029V8.85549C123.702 7.18317 121.858 6.02548 118.734 6.0255C113.481 6.02555 110.209 10.1836 110.209 15.3061C110.209 20.4286 113.413 24.5758 118.734 24.5758ZM119.497 21.593C115.717 21.593 113.858 18.7783 113.858 15.3061C113.858 11.8339 115.717 9.01919 119.497 9.01919C123.277 9.01919 125.136 11.8339 125.136 15.3061C125.136 18.7783 123.277 21.593 119.497 21.593Z" fill="#F5F9FF"/>
<path d="M147.608 6.0365C142.287 6.0365 139.083 10.1837 139.083 15.3062C139.083 20.4287 142.287 24.5758 147.608 24.5758C150.698 24.5758 152.616 23.5117 153.901 21.7424V23.6019C153.901 23.8471 154.099 24.0446 154.344 24.0446H157.018C157.263 24.0446 157.46 23.8471 157.46 23.6019V15.3062V7.01047C157.46 6.76523 157.263 6.56775 157.018 6.56775H154.344C154.099 6.56775 153.901 6.76523 153.901 7.01047V8.86989C152.616 7.10063 150.698 6.0365 147.608 6.0365ZM148.371 9.01926C152.15 9.01926 154.01 11.834 154.01 15.3062C154.01 18.7783 152.15 21.5931 148.371 21.5931C144.591 21.5931 142.732 18.7783 142.732 15.3062C142.732 11.834 144.591 9.01926 148.371 9.01926Z" fill="#F5F9FF"/>
<path d="M52.5738 6.56799C52.1917 6.56799 52.1232 6.86975 52.2967 7.10878L57.9882 14.9027L51.7413 23.5039C51.5678 23.7429 51.6363 24.0448 52.0185 24.0448H55.1003C55.3676 24.0448 55.5064 23.9536 55.5953 23.8225L59.8519 17.5408L64.2854 23.8225C64.3767 23.9518 64.5131 24.0448 64.7804 24.0448H67.98C68.3622 24.0448 68.4314 23.7424 68.2572 23.5039L61.9744 14.9027L67.6302 7.10878C67.8037 6.86976 67.7353 6.56799 67.3531 6.56799H64.3317C64.0644 6.56799 63.9258 6.65932 63.8367 6.79025L60.1016 12.2798L56.2429 6.79025C56.1521 6.66053 56.0152 6.56799 55.748 6.56799H52.5738Z" fill="#F5F9FF"/>
<path d="M99.4333 6.02539C94.0824 6.02539 90.8618 9.87282 90.8618 15.3005C90.8618 21.2869 94.6686 24.5757 99.4333 24.5757C105.191 24.5757 107.461 21.1894 107.588 21.0625C107.734 20.9166 107.694 20.6449 107.571 20.5247L105.907 18.8931C105.785 18.7729 105.551 18.7544 105.39 18.9172C105.268 19.0397 103.242 21.6007 99.923 21.6007C96.3949 21.6007 94.6582 19.4393 94.4244 16.2551H107.572C107.979 16.2551 108.001 15.8926 108.002 15.6546C108.03 9.19 104.273 6.02539 99.4333 6.02539ZM99.4449 8.8385C102.681 8.8385 104.037 10.7845 104.323 13.5565H94.5522C94.9364 10.8391 96.3635 8.8385 99.4449 8.8385Z" fill="#F5F9FF"/>
<path d="M4.23465 2.73414C3.96427 2.73414 3.79433 2.79627 3.65114 2.93945L0.751652 5.83894C0.697806 5.89277 0.667555 5.96585 0.667542 6.04199C0.667525 6.20051 0.796066 6.32902 0.954583 6.32903H13.524L5.79666 14.0563C5.64437 14.2085 5.55579 14.2971 5.55579 14.596L5.55579 16.6291C5.55579 16.7522 5.61179 16.8589 5.69215 16.9393C5.77251 17.0196 5.8791 17.0755 6.00222 17.0755H8.03546C8.33432 17.0755 8.42278 16.987 8.57506 16.8348L16.3024 9.10742V21.6768C16.3024 21.8353 16.431 21.9639 16.5895 21.9639C16.6656 21.9639 16.7387 21.9336 16.7925 21.8798L19.692 18.9803C19.8352 18.8371 19.8974 18.6672 19.8973 18.3968L19.8973 4.6717C19.8973 4.41725 19.8472 4.16529 19.7498 3.93021C19.6524 3.69513 19.5097 3.48153 19.3298 3.30161C19.1498 3.12169 18.9362 2.97897 18.7012 2.8816C18.4661 2.78424 18.2141 2.73412 17.9596 2.73413L4.23465 2.73414Z" fill="#F5F9FF"/>
<path d="M1.77714 17.64H4.56616C4.79946 17.64 4.98728 17.8278 4.98728 18.0611V20.8676C4.98728 21.1009 4.79946 21.2887 4.56616 21.2887H1.77714C1.54384 21.2887 1.35602 21.1009 1.35602 20.8676V18.0611C1.35602 17.8278 1.54384 17.64 1.77714 17.64Z" fill="#F5F9FF"/>
</svg>
