<svg width="63" height="30" viewBox="0 0 63 30" fill="none" xmlns="http://www.w3.org/2000/svg">
<path d="M11.3699 28.3158C11.5169 28.6271 11.7668 28.7993 12.0607 28.7993C12.3888 28.7993 12.6733 28.541 12.6733 28.2307C12.6733 27.9789 12.5526 27.8329 12.3626 27.7384L11.3086 27.2371C10.6277 26.91 10.264 26.34 10.264 25.6665C10.264 24.6743 11.0686 23.8712 12.078 23.8712C12.8717 23.8712 13.5447 24.328 13.8728 25.088L12.7594 25.5542C12.6209 25.2434 12.3705 25.0717 12.078 25.0717C11.75 25.0717 11.4634 25.33 11.4634 25.6417C11.4634 25.8555 11.5852 26.0455 11.7757 26.1336L12.8282 26.6334C13.5353 26.9694 13.8728 27.5058 13.8728 28.2035C13.8728 29.2145 13.0702 29.9998 12.0513 29.9998C11.266 29.9998 10.6113 29.5514 10.264 28.783L11.3699 28.3158Z" fill="#F5F9FF"/>
<path d="M17.0799 29.939H15.872V25.1292H14.4716V23.9292H18.4798V25.1292H17.0799V29.939Z" fill="#F5F9FF"/>
<path d="M26.4909 29.939H25.2904L24.617 27.9349H23.6842V29.939H22.4847V23.9292H24.4873C25.5938 23.9292 26.4909 24.8288 26.4909 25.9328C26.4909 26.5618 26.2133 27.115 25.6962 27.5301L26.4909 29.939ZM23.6842 26.7349H24.4873C24.9346 26.7349 25.2904 26.3732 25.2904 25.9328C25.2904 25.4924 24.9346 25.1292 24.4873 25.1292H23.6842V26.7349Z" fill="#F5F9FF"/>
<path d="M31.6949 23.9304V25.1294H28.8902V26.3309H31.0917V27.5388H28.8902V28.7378H31.6949V29.9392H27.6902V23.9304H31.6949Z" fill="#F5F9FF"/>
<path d="M35.5021 29.939H34.2937V25.1292H32.8943V23.9292H36.902V25.1292H35.5021V29.939Z" fill="#F5F9FF"/>
<path d="M38.5059 28.7376L38.1006 29.9391H36.9017L38.9038 23.9303H40.1032L42.1058 29.9391H40.9054L40.508 28.7376H38.5059ZM39.508 25.5697L38.9038 27.5387H40.1032L39.508 25.5697Z" fill="#F5F9FF"/>
<path d="M43.3053 29.9392H44.5067V23.9304H43.3053V29.9392Z" fill="#F5F9FF"/>
<path d="M46.905 28.7376H49.7113V29.9391H45.7056V23.9303H46.905V28.7376Z" fill="#F5F9FF"/>
<path d="M50.9124 29.9392H52.1119V23.9304H50.9124V29.9392Z" fill="#F5F9FF"/>
<path d="M54.511 29.939H53.311V23.9292H54.511L56.1152 27.5044V23.9292H57.3167V29.939H56.1152L54.511 26.3638V29.939Z" fill="#F5F9FF"/>
<path d="M61.3217 25.8731C61.3217 25.4158 60.9669 25.0709 60.5191 25.0709C60.0693 25.0709 59.7155 25.4257 59.7155 25.8731V27.9974C59.7155 28.4373 60.0772 28.7995 60.5191 28.7995C60.9843 28.7995 61.3217 28.4467 61.3217 27.9633H60.5191V26.7974H62.5207V27.9974C62.5207 29.1281 61.6241 30 60.5191 30C59.4136 30 58.515 29.1029 58.515 27.9974V25.8731C58.515 24.7686 59.4136 23.871 60.5191 23.871C61.6315 23.871 62.5207 24.7607 62.5207 25.8731H61.3217Z" fill="#F5F9FF"/>
<path d="M0.454102 20.6879L19.0733 14.4827H0.454102V20.6879Z" fill="#F5F9FF"/>
<path d="M62.5209 0H0.454701V5.17252H47.0059L62.5209 0Z" fill="#F5F9FF"/>
<path d="M0.454102 12.4139H25.28L40.798 7.24142H0.454102V12.4139Z" fill="#F5F9FF"/>
<path d="M4.45926 23.9305V25.1294H1.65403V26.3309H3.85556V27.5388H1.65403V29.9392H0.455049V23.9305H4.45926Z" fill="#F5F9FF"/>
<path d="M6.06578 28.7377L5.65902 29.9392H4.45905L6.46115 23.9304H7.66212L9.66571 29.9392H8.46573L8.06838 28.7377H6.06578ZM7.06584 25.5698L6.46115 27.5387H7.66212L7.06584 25.5698Z" fill="#F5F9FF"/>
</svg>
