<svg width="32" height="30" viewBox="0 0 32 30" fill="none" xmlns="http://www.w3.org/2000/svg">
<path d="M30.8999 0.5V29.5H1.38232V0.5H30.8999Z" stroke="#F5F9FF"/>
<path fill-rule="evenodd" clip-rule="evenodd" d="M27.9896 6.88287H26.9163V3.00115H27.9272V3.43568C28.053 3.17459 28.3687 2.9435 28.7793 2.91396C29.4745 2.8849 29.9475 3.26178 29.9475 4.07271V6.88287H28.8427V3.95693C28.8427 3.60959 28.8427 3.31943 28.5899 3.26178C28.4951 3.23271 28.3372 3.26178 28.2109 3.3485C28.053 3.49381 27.9896 3.66725 27.9896 3.95693V6.88287ZM9.32499 4.94178C9.32499 5.666 9.32499 6.24537 9.19863 6.53553C9.10374 6.6799 9.00885 6.76709 8.7876 6.76709C8.5983 6.76709 8.47194 6.6799 8.409 6.53506C8.25117 6.24537 8.25117 5.666 8.25117 4.94178C8.25117 4.24662 8.25117 3.63865 8.40852 3.3485C8.47194 3.20365 8.5983 3.11693 8.7876 3.11693C9.00885 3.11693 9.10374 3.20365 9.19863 3.3485C9.35646 3.63818 9.32499 4.24615 9.32499 4.94178ZM9.73507 3.26178C9.48235 3.05881 9.16668 2.91396 8.7876 2.91396C8.409 2.91396 8.12481 3.05928 7.84061 3.26178C7.39811 3.60959 7.11392 4.24662 7.11392 4.94178C7.11392 5.666 7.39811 6.27443 7.84061 6.62225C8.12481 6.82475 8.409 6.96959 8.7876 6.96959C9.16668 6.96959 9.48282 6.82475 9.73554 6.62225C10.209 6.27443 10.4618 5.666 10.4618 4.94178C10.4618 4.24662 10.2086 3.60959 9.73507 3.26178ZM20.7575 8.36037V9.40287H20.5367C20.4104 8.96834 20.2206 8.59193 19.7152 8.56287C19.3995 8.53428 19.1153 8.70818 19.0838 8.96834C19.0524 9.22943 19.1468 9.46053 19.7152 9.75115C20.4418 10.1271 21.0102 10.301 21.0102 11.0833C21.0102 11.9233 20.2206 12.3293 19.5573 12.3293H18.2937V10.8808H18.515C18.6733 11.6337 18.9255 12.0972 19.5259 12.1263C19.9049 12.1263 20.1886 11.9233 20.1886 11.5469C20.1886 11.1701 19.9364 10.9385 19.3366 10.6197C18.6733 10.2433 18.2627 10.0113 18.2627 9.49006C18.2627 8.7949 18.7996 8.36037 19.6522 8.36037H20.7575ZM22.147 6.88287V4.07271C22.147 3.26178 21.6735 2.8849 20.9788 2.91396C20.5048 2.94303 20.2206 3.23271 20.0942 3.46428C19.9364 3.05881 19.5888 2.8849 19.0834 2.91396C18.6733 2.94303 18.3571 3.17459 18.2308 3.43568V3.00115H17.2518V6.8824H18.3257V3.9574C18.3257 3.66771 18.3571 3.49381 18.5469 3.34896C18.6733 3.26225 18.7996 3.23318 18.8941 3.26225C19.1468 3.3199 19.1468 3.61006 19.1468 3.9574V6.88334H20.2206V3.92787C20.2206 3.66678 20.2835 3.49287 20.4418 3.34803C20.5682 3.26131 20.6946 3.23225 20.789 3.26131C21.0417 3.31896 21.0732 3.60912 21.0732 3.95646V6.8824H22.147V6.88287ZM11.188 6.88287H12.2933V2.18975H11.188V6.88287ZM14.9144 3.3199C15.1357 3.60959 15.1357 4.30428 15.1357 4.85506C15.1357 5.43443 15.1676 6.18771 14.9149 6.506C14.82 6.62225 14.7251 6.6799 14.5673 6.6799C14.3465 6.6799 14.2201 6.44834 14.1572 6.07146C14.1253 5.72412 14.1253 5.28959 14.1253 4.826C14.1253 4.04412 14.1882 3.17459 14.5992 3.17459C14.7566 3.17459 14.8195 3.23271 14.9144 3.3199ZM16.21 6.88287V2.18975H15.1042V3.29084C15.0098 3.08787 14.7885 2.94303 14.4729 2.94303C13.6832 2.94303 13.0519 3.69631 13.02 4.85506C12.9885 5.6374 13.2727 6.941 14.378 6.941C14.82 6.941 15.0727 6.70896 15.1676 6.506V6.88287H16.21ZM24.8001 4.56537L24.4525 4.76787C24.1053 4.97084 24.0424 5.23193 24.0105 5.52115C23.979 5.75318 23.979 5.95568 24.0105 6.3035C24.0419 6.62225 24.2632 6.6799 24.4525 6.62225C24.6737 6.53506 24.8001 6.15865 24.8001 5.75318V4.56537ZM25.4314 3.11693C25.7161 3.26225 25.9054 3.49334 25.9054 4.01506V6.88287H24.863V6.44834C24.7371 6.76709 24.3895 6.96959 23.9156 6.96959C23.537 6.96959 22.8737 6.79615 22.8737 5.89803C22.8737 5.05756 23.4735 4.88412 24.1373 4.62303C24.7371 4.39146 24.8001 4.3624 24.8001 4.13084V3.49334C24.8001 3.23271 24.6423 3.11693 24.3261 3.11693C24.2002 3.146 23.979 3.20365 23.979 3.3485C23.947 3.5224 24.1683 3.5224 24.2002 3.78303C24.2317 4.18896 23.8841 4.33334 23.5684 4.30475C23.3472 4.30475 23.0945 4.18896 23.063 3.87021C23.0315 3.3485 23.6628 2.91396 24.5474 2.91396C24.9579 2.91396 25.2106 3.00115 25.4314 3.11693ZM9.16668 9.98225L8.81955 10.1852C8.47194 10.3882 8.409 10.6488 8.37705 10.9385C8.34606 11.1701 8.34606 11.4021 8.37705 11.7204C8.37705 12.0682 8.5983 12.1263 8.7876 12.0391C9.04032 11.9524 9.16668 11.6051 9.16668 11.1701V9.98225ZM9.79849 8.53381C10.0827 8.70771 10.2405 8.91068 10.2405 9.43193V12.3288H9.23058V11.8943C9.10422 12.184 8.75708 12.3865 8.28311 12.3865C7.87256 12.3865 7.24076 12.2421 7.24076 11.344C7.24076 10.504 7.84109 10.3301 8.47242 10.069C9.10422 9.80881 9.16716 9.77975 9.16716 9.57678V8.93928C9.16716 8.65006 9.00933 8.53428 8.69367 8.56287C8.56731 8.56287 8.34653 8.621 8.34653 8.76584C8.31458 8.96881 8.53583 8.96881 8.56731 9.22943C8.59878 9.60584 8.25164 9.75068 7.9355 9.75068C7.71473 9.72162 7.46201 9.60584 7.43006 9.28709C7.39859 8.7949 8.03039 8.3599 8.91444 8.3599C9.32547 8.3599 9.57771 8.41803 9.79896 8.53428L9.79849 8.53381ZM17.4416 9.51912C17.4416 8.70818 16.9677 8.30225 16.2729 8.36037C15.9258 8.38896 15.6411 8.53381 15.4833 8.73678V7.60709H14.409V10.2724C14.409 11.2568 13.6508 12.184 12.8926 12.1549C12.3562 12.1549 12.2299 11.7785 12.1664 11.373C12.072 10.7937 12.072 10.1276 12.135 9.40287C12.1984 8.93975 12.3247 8.56287 12.7038 8.56287C12.988 8.56287 13.0195 8.73678 12.8931 8.85256C12.7668 8.99787 12.5775 9.14225 12.6719 9.461C12.7668 9.80881 13.3666 9.86646 13.6513 9.60631C13.8721 9.37428 13.8406 8.9974 13.6828 8.76584C13.493 8.47615 13.1773 8.36037 12.7038 8.36037C12.1035 8.36037 10.9667 8.85256 10.9667 10.4168C10.9667 12.0972 12.135 12.3869 12.7982 12.3869C13.5564 12.3869 14.2192 11.7785 14.409 11.2858V12.3288H15.4828V9.40287C15.4828 9.11365 15.5457 8.93975 15.704 8.79443C15.8304 8.70771 15.9882 8.67865 16.0831 8.70771C16.3358 8.76584 16.3358 9.05553 16.3358 9.40287V12.3288H17.4411L17.4416 9.51912ZM6.38771 2.10303V3.75443H6.16646C5.97716 2.9435 5.5666 2.33459 4.99822 2.306C4.61914 2.27693 4.39789 2.47943 4.20859 2.76912C4.01928 3.11693 3.92439 3.84115 3.92439 4.70975C3.92439 5.52115 3.95587 6.12959 4.05075 6.56412C4.1137 6.76709 4.27153 7.08537 4.68208 7.08537C4.90333 7.08537 5.06116 7.02771 5.15605 6.91193C5.31341 6.73803 5.34535 6.39021 5.34535 6.15865V5.37631C5.34535 5.08662 5.25094 4.91318 5.09263 4.826C4.96675 4.76787 4.77697 4.76787 4.68256 4.73881V4.53631H6.45065V8.67912H6.22988C6.13499 8.36037 6.07204 8.12834 5.91374 7.86771C5.75638 7.60709 5.47171 7.3174 4.99822 7.3174C4.49278 7.28834 4.1137 7.57803 4.1137 8.01256C4.1137 8.59193 4.49278 8.73678 5.18752 9.08459C5.85079 9.43193 6.70385 9.72209 6.70385 10.7355C6.70385 11.7204 5.78738 12.3293 4.7455 12.3293H3.07182V10.3301H3.29259C3.57678 11.8366 4.27153 12.0972 4.7455 12.0972C5.34535 12.0972 5.62954 11.7494 5.62954 11.2572C5.59807 10.6197 5.1241 10.3882 4.46131 10.0694C3.51384 9.57725 3.07182 9.34521 3.07182 8.53428C3.10329 7.83865 3.70314 7.40459 4.36642 7.23068C2.97693 7.08537 2.56638 5.92709 2.59785 4.68115C2.59785 3.43568 3.38748 2.10303 4.9348 2.10303H6.38771Z" fill="#F5F9FF"/>
</svg>
