<svg width="30" height="30" viewBox="0 0 30 30" fill="none" xmlns="http://www.w3.org/2000/svg">
<path d="M29.4001 15.341C29.4001 14.2774 29.3046 13.2547 29.1274 12.2728H15V18.082H23.0728C22.7182 19.9501 21.6546 21.532 20.0591 22.5956V26.3729H24.9273C27.7637 23.7547 29.4001 19.9092 29.4001 15.341Z" fill="#F5F9FF"/>
<path d="M14.9963 30C19.0464 30 22.4419 28.6636 24.9237 26.3727L20.0555 22.5954C18.7191 23.4954 17.0145 24.0408 14.9963 24.0408C11.0963 24.0408 7.78266 21.409 6.59629 17.8635H1.60535V21.7363C4.07355 26.6318 9.13267 30 14.9963 30Z" fill="#F5F9FF"/>
<path d="M6.60004 17.8501C6.30004 16.9501 6.12277 15.9956 6.12277 15.0001C6.12277 14.0047 6.30004 13.0501 6.60004 12.1501V8.27734H1.6091C0.586368 10.2955 0 12.5728 0 15.0001C0 17.4274 0.586368 19.7047 1.6091 21.7229L5.49549 18.6956L6.60004 17.8501Z" fill="#F5F9FF"/>
<path d="M14.9963 5.97276C17.2055 5.97276 19.1691 6.7364 20.7373 8.20913L25.0328 3.91366C22.4282 1.48637 19.0464 0 14.9963 0C9.13267 0 4.07354 3.3682 1.60535 8.27731L6.59629 12.1501C7.78266 8.60459 11.0963 5.97276 14.9963 5.97276Z" fill="#F5F9FF"/>
</svg>
