<svg width="81" height="30" viewBox="0 0 81 30" fill="none" xmlns="http://www.w3.org/2000/svg">
<path d="M14.939 27.9061H0.399658V29.9949H14.939V27.9061Z" fill="#F5F9FF"/>
<path d="M14.939 23.9172H0.399658V26.006H14.939V23.9172Z" fill="#F5F9FF"/>
<path d="M10.7817 19.9319H4.54517V22.0207H10.7817V19.9319Z" fill="#F5F9FF"/>
<path d="M10.7817 15.9473H4.54517V18.036H10.7817V15.9473Z" fill="#F5F9FF"/>
<path d="M10.7817 11.9617H4.54517V14.0504H10.7817V11.9617Z" fill="#F5F9FF"/>
<path d="M10.7817 7.96973H4.54517V10.0585H10.7817V7.96973Z" fill="#F5F9FF"/>
<path d="M14.939 3.98535H0.399658V6.07413H14.939V3.98535Z" fill="#F5F9FF"/>
<path d="M14.939 0H0.399658V2.08877H14.939V0Z" fill="#F5F9FF"/>
<path d="M17.0178 29.9762L32.5054 29.9984C34.5793 29.9984 36.4532 29.1985 37.8531 27.9097H17.018L17.0178 29.9762Z" fill="#F5F9FF"/>
<path d="M17.0178 26.0056H39.3791C39.7568 25.3613 40.0383 24.6576 40.2087 23.9169H17.0181L17.0178 26.0056Z" fill="#F5F9FF"/>
<path d="M27.3934 19.9319H21.1643V22.0207H27.3934V19.9319Z" fill="#F5F9FF"/>
<path d="M33.6338 19.9319V22.0207H40.4333C40.4333 21.3022 40.3369 20.5986 40.1518 19.9319H33.6338Z" fill="#F5F9FF"/>
<path d="M37.63 15.9471H21.1643V18.0359H39.3701C38.896 17.2359 38.3109 16.5323 37.6295 15.9471H37.63Z" fill="#F5F9FF"/>
<path d="M21.1643 11.9617V14.0504H37.63C38.3263 13.4653 38.9113 12.7616 39.3706 11.9617H21.1643Z" fill="#F5F9FF"/>
<path d="M27.3934 7.96973H21.1643V10.0585H27.3934V7.96973Z" fill="#F5F9FF"/>
<path d="M33.6338 10.0585H40.1518C40.3369 9.3919 40.4333 8.68822 40.4333 7.96973H33.6338V10.0585Z" fill="#F5F9FF"/>
<path d="M39.3791 3.98535H17.0178V6.07413H40.2084C40.0159 5.33342 39.7344 4.62981 39.3789 3.98535H39.3791Z" fill="#F5F9FF"/>
<path d="M32.5054 0H17.0178V2.08877H37.8461C36.4537 0.799929 34.565 0 32.5058 0H32.5054Z" fill="#F5F9FF"/>
<path d="M41.9514 6.07413H55.9426L55.224 3.98535H41.9514V6.07413Z" fill="#F5F9FF"/>
<path d="M41.9514 2.08877H54.5652L53.8466 0H41.9514V2.08877Z" fill="#F5F9FF"/>
<path d="M64.7874 30.0001V27.9115H75.1795V30.0001H64.7874Z" fill="#F5F9FF"/>
<path d="M64.7874 26.0059V23.9172H75.1795V26.0059H64.7874Z" fill="#F5F9FF"/>
<path d="M58.5553 13.6502L57.9706 11.9617H52.3262H46.0896V14.0503H52.3262V12.1322L52.9858 14.0503H64.1257L64.7845 12.1322V14.0503H71.0211V11.9617H64.7845H59.1409L58.5553 13.6502Z" fill="#F5F9FF"/>
<path d="M71.021 7.96973H60.5182L59.7996 10.0583H71.021V7.96973Z" fill="#F5F9FF"/>
<path d="M75.1802 2.08877V0H63.285L62.5664 2.08877H75.1802Z" fill="#F5F9FF"/>
<path d="M57.8376 27.9098L58.5555 29.976L59.2742 27.9098H57.8376Z" fill="#F5F9FF"/>
<path d="M56.4524 23.9172L57.186 26.0059H59.9416L60.6819 23.9172H56.4524Z" fill="#F5F9FF"/>
<path d="M55.0488 19.9319L55.7824 22.0205H61.3378L62.0706 19.9319H55.0488Z" fill="#F5F9FF"/>
<path d="M54.3898 18.0359H62.7374L63.4486 15.9473H53.6711L54.3898 18.0359Z" fill="#F5F9FF"/>
<path d="M46.0896 10.0583H57.311L56.5931 7.96973H46.0896V10.0583Z" fill="#F5F9FF"/>
<path d="M75.1797 3.98535H61.8989L61.1885 6.07413H75.1797V3.98535Z" fill="#F5F9FF"/>
<path d="M52.3435 27.9099H41.9514V29.9987H52.3435V27.9099Z" fill="#F5F9FF"/>
<path d="M52.3435 23.9172H41.9514V26.006H52.3435V23.9172Z" fill="#F5F9FF"/>
<path d="M52.3261 19.9319H46.0896V22.0207H52.3261V19.9319Z" fill="#F5F9FF"/>
<path d="M52.3261 15.9473H46.0896V18.036H52.3261V15.9473Z" fill="#F5F9FF"/>
<path d="M71.0239 15.9473H64.7874V18.036H71.0239V15.9473Z" fill="#F5F9FF"/>
<path d="M71.0239 19.9319H64.7874V22.0207H71.0239V19.9319Z" fill="#F5F9FF"/>
<path d="M79.07 26.7081C78.6336 26.7081 78.2152 26.8815 77.9067 27.19C77.5981 27.4985 77.4248 27.917 77.4248 28.3533C77.4248 28.7896 77.5981 29.2081 77.9067 29.5166C78.2152 29.8252 78.6336 29.9985 79.07 29.9985C79.5063 29.9985 79.9247 29.8252 80.2333 29.5166C80.5418 29.2081 80.7151 28.7896 80.7151 28.3533C80.7151 27.917 80.5418 27.4985 80.2333 27.19C79.9247 26.8815 79.5063 26.7081 79.07 26.7081ZM79.07 27.0073C79.4269 27.0073 79.7693 27.1491 80.0217 27.4015C80.2742 27.6539 80.416 27.9963 80.416 28.3533C80.416 28.7103 80.2742 29.0527 80.0217 29.3051C79.7693 29.5575 79.4269 29.6994 79.07 29.6994C78.713 29.6994 78.3706 29.5575 78.1182 29.3051C77.8657 29.0527 77.7239 28.7103 77.7239 28.3533C77.7239 27.9963 77.8657 27.6539 78.1182 27.4015C78.3706 27.1491 78.713 27.0073 79.07 27.0073ZM78.3709 27.5152V29.1914H78.7787V28.6133H79.0104L79.3217 29.1914H79.769L79.3933 28.5496C79.5774 28.4775 79.6971 28.3091 79.6971 28.0448C79.6971 27.7396 79.5057 27.5152 79.1301 27.5152H78.3709ZM78.7787 27.836H79.0819C79.2099 27.836 79.2814 27.8921 79.2814 28.0121V28.1328C79.2814 28.2528 79.2099 28.3092 79.0819 28.3092H78.7787V27.836Z" fill="#F5F9FF"/>
</svg>
