<svg width="152" height="30" viewBox="0 0 152 30" fill="none" xmlns="http://www.w3.org/2000/svg">
<path d="M27.558 29.6987H32.6727L36.6823 14.7556H31.6202L27.558 29.6987Z" fill="#F5F9FF"/>
<path d="M53.7824 29.6987H58.8971L62.9067 14.7556H57.792L53.7824 29.6987Z" fill="#F5F9FF"/>
<path d="M80.0513 29.6987H85.1158L89.0778 14.7556H83.9631L80.0513 29.6987Z" fill="#F5F9FF"/>
<path d="M49.0212 19.8707H54.1359C54.8375 16.5127 52.6824 14.8086 47.6679 14.8086C41.8516 14.8086 37.9422 17.6654 36.589 22.5295C35.4337 27.0402 37.7918 29.7492 43.2549 29.7492C48.7705 29.7492 52.0283 28.0452 53.3841 24.1834H48.2694C47.5176 25.8875 46.2145 26.7395 44.4101 26.7395C41.9518 26.7395 40.9494 25.2359 41.7012 22.3791C42.5031 19.4196 44.4101 17.7656 46.866 17.7656C48.4698 17.7656 49.1715 18.4673 49.0212 19.8707Z" fill="#F5F9FF"/>
<path d="M75.2931 19.8707H80.4078C81.1095 16.5127 78.9018 14.8086 73.8873 14.8086C68.121 14.8086 64.1616 17.6654 62.8585 22.5295C61.6556 27.0402 64.0112 29.7492 69.4768 29.7492C74.9423 29.7492 78.2001 28.0452 79.6034 24.1834H74.4912C73.7871 25.8875 72.4338 26.7395 70.6295 26.7395C68.1736 26.7395 67.1713 25.2359 67.9707 22.3791C68.725 19.4196 70.6295 17.7656 73.0854 17.7656C74.6917 17.7656 75.4435 18.4673 75.2931 19.8707Z" fill="#F5F9FF"/>
<path d="M18.5787 1.24023C21.6844 0.580235 24.1026 1.28792 25.444 3.15723C26.8332 5.09329 27.0168 8.1991 25.8912 11.8232C24.7783 15.4068 22.4386 19.2913 19.1344 22.5713L19.1315 22.5742C15.8234 25.8823 12.2161 27.9049 9.10901 28.5635C6.09983 29.2012 3.72027 28.5494 2.32971 26.7803L2.19885 26.6064C0.834457 24.6433 0.668586 21.5364 1.79749 17.9268C2.91654 14.3489 5.25558 10.4757 8.5592 7.19629C11.8671 3.9127 15.4756 1.89982 18.5787 1.24023Z" stroke="#F5F9FF" stroke-width="2"/>
<path d="M20.9897 3.62651V3.77687C20.9396 4.6289 20.4383 5.68141 19.5362 6.58356C18.183 7.88666 16.3787 8.38786 15.6244 7.63857C14.7723 6.83666 15.276 5.07998 16.6293 3.67663C18.0326 2.32341 19.8369 1.87233 20.5887 2.67424C20.8393 2.92484 20.9897 3.22556 20.9897 3.62651ZM15.7772 26.6389C12.5671 29.0446 9.25916 30.25 6.04901 29.7488C7.40224 29.7989 8.50736 28.2928 9.40951 26.288C10.3117 24.2331 10.8129 22.3286 11.2639 20.5218C11.9155 17.665 11.9656 15.6602 11.6148 15.2091C11.0635 14.5049 9.86059 14.6578 8.45473 15.4597C7.75306 15.8607 6.85092 15.6101 7.90593 14.307C9.00856 13.0039 13.2687 9.89395 14.7723 9.39275C16.4789 8.94168 18.3834 9.59324 17.7319 11.4477C17.2783 12.8009 11.3642 28.2427 15.7772 26.6389Z" fill="#F5F9FF"/>
<path d="M96.7489 27.3414L97.9017 23.0311H100.708V20.7256H98.5532L99.5556 17.0644H100.708V14.8065H96.8968L92.9373 29.7496H100.708V27.3414H96.7489ZM100.708 23.0311H101.26C103.818 23.0311 105.021 23.4822 104.52 25.2364C104.119 26.7901 102.866 27.3414 100.708 27.3414V29.7496C102.816 29.7496 104.37 29.5492 105.923 28.4941C106.976 27.7925 107.73 26.74 108.031 25.5371C108.58 23.4822 107.678 22.0763 105.322 21.7781C107.527 21.3772 108.933 20.2219 109.382 18.4176C109.783 17.0644 109.432 16.062 108.479 15.4105C107.678 14.8591 106.324 14.8065 104.52 14.8065H100.708V17.0644H102.666C105.071 17.0644 106.174 17.3651 105.823 18.8687C105.372 20.3222 104.069 20.7256 101.613 20.7256H100.708V23.0311Z" fill="#F5F9FF"/>
<path d="M114.748 19.272V21.1239C114.347 21.3269 113.996 21.6777 113.845 22.1789H110.838C111.337 20.7254 112.693 19.7205 114.748 19.272ZM114.748 28.0454C114.397 28.1456 113.996 28.1957 113.595 28.1957C112.242 28.1957 111.64 27.6419 111.941 26.6395C112.242 25.4868 113.144 25.0858 114.748 24.9355V23.1813C111.287 23.4319 109.382 24.334 108.781 26.5894C108.229 28.6443 109.535 30 112.242 30C113.144 30 113.996 29.8497 114.748 29.5489V28.0454ZM117.657 24.9355L117.607 25.0858C117.206 26.6395 116.151 27.6945 114.748 28.0454V29.5489C115.499 29.2457 116.151 28.8473 116.752 28.296L116.502 29.7494H119.511C119.662 29.0453 119.812 28.2433 120.013 27.4414L121.165 23.2314C121.265 22.8806 121.316 22.5297 121.316 22.1789V21.6777C121.215 19.9711 119.762 19.069 117.055 19.069C116.201 19.069 115.449 19.1692 114.748 19.272V21.1239C115.199 20.8758 115.75 20.7755 116.454 20.7755C118.005 20.7755 118.609 21.4747 118.156 22.9808L118.108 23.1312H116.502C115.903 23.1312 115.299 23.1813 114.748 23.1813V24.9355L117.657 24.9355Z" fill="#F5F9FF"/>
<path d="M122.219 29.7494H125.279L126.732 24.3841C127.234 22.4796 128.988 21.1239 130.842 21.1239C132.646 21.1239 133.301 22.1789 132.699 24.2839L131.243 29.7494H134.303L136.007 23.3817C136.709 20.6753 135.355 19.069 132.348 19.069C130.391 19.069 128.837 19.7706 127.484 21.174L127.835 19.3196H124.778C124.477 20.9735 124.277 21.9784 124.174 22.3794L122.219 29.7494Z" fill="#F5F9FF"/>
<path d="M137.009 29.7492H140.018L141.522 24.1333L145.584 29.7492H149.744L145.13 23.7825L151.348 19.3193H147.489L141.722 23.4818L144.028 14.8086H141.021L137.009 29.7492Z" fill="#F5F9FF"/>
</svg>
