<svg width="32" height="30" viewBox="0 0 32 30" fill="none" xmlns="http://www.w3.org/2000/svg">
<path d="M15.793 1C23.6839 1.00009 30.0518 7.28412 30.0518 15C30.0518 22.7159 23.6839 28.9999 15.793 29C7.90196 29 1.53418 22.7159 1.53418 15C1.53418 7.28406 7.90196 1 15.793 1Z" stroke="#F5F9FF" stroke-width="2"/>
<path d="M22.8982 18.1984C21.7754 18.1984 21.0036 17.3883 21.0036 16.2308C21.0036 15.0908 21.792 14.2809 22.8982 14.2809C24.0045 14.2809 24.7941 15.0908 24.7941 16.2471C24.7941 17.3684 23.9879 18.1971 22.8995 18.1971L22.8982 18.1984ZM22.9364 11.7583C20.0563 11.7583 18.1401 13.5546 18.1401 16.2283C18.1401 18.9721 19.9851 20.7334 22.8817 20.7334C25.7605 20.7334 27.6564 18.9721 27.6564 16.2458C27.6564 13.5546 25.7808 11.7583 22.9351 11.7583H22.9364ZM15.5143 7.8396C14.4259 7.8396 13.7405 8.44335 13.7405 9.39335C13.7405 10.3608 14.4424 10.9646 15.5652 10.9646C16.6549 10.9646 17.339 10.3608 17.339 9.39335C17.339 8.4271 16.6371 7.8396 15.5143 7.8396ZM15.7076 11.8446H15.3554C14.4971 11.8446 13.846 12.2408 13.846 13.4508V18.9759C13.846 20.2009 14.4767 20.5809 15.3922 20.5809H15.7419C16.6028 20.5809 17.2169 20.1684 17.2169 18.9746V13.4508C17.2169 12.2071 16.6193 11.8446 15.7076 11.8446ZM11.1097 9.2396H10.601C9.63466 9.2396 9.10824 9.7771 9.10824 10.8458V16.0084C9.10824 17.3371 8.65048 17.8033 7.58238 17.8033C6.74061 17.8033 6.05525 17.4408 5.50975 16.7833C5.45635 16.7158 4.3501 17.2321 4.3501 18.5121C4.3501 19.8921 5.66615 20.7383 8.10753 20.7383C11.0753 20.7383 12.6381 19.2721 12.6381 16.0608V10.8434C12.6381 9.77335 12.1129 9.2396 11.1097 9.2396Z" fill="#F5F9FF"/>
</svg>
