<svg width="454" height="30" viewBox="0 0 454 30" fill="none" xmlns="http://www.w3.org/2000/svg">
<path d="M8.65192 0.633097H21.682V1.57866H20.9768C19.5968 1.57866 18.6937 1.6918 18.2674 1.91809C17.839 2.15044 17.5541 2.57473 17.4208 3.19298C17.2814 3.81931 17.2106 5.30028 17.2106 7.6359V17.241C17.2106 19.6271 17.1197 21.4314 16.9338 22.678C16.7439 23.9226 16.2287 25.1368 15.37 26.3208C14.5153 27.4967 13.3717 28.4119 11.9473 29.0504C10.5188 29.6848 8.86205 30 6.97089 30C4.84737 30 3.21079 29.606 2.0672 28.8261C0.921593 28.0402 0.347778 27.1007 0.347778 26.0218C0.347778 25.3692 0.551846 24.8196 0.962002 24.3711C1.37418 23.9286 1.87728 23.7104 2.47736 23.7104C3.08956 23.7104 3.60276 23.9064 4.0109 24.3044C4.42509 24.7024 4.62916 25.1934 4.62916 25.7753C4.62916 26.1208 4.5443 26.4744 4.3766 26.8522C4.22507 27.1815 4.14829 27.426 4.14829 27.5896C4.14829 28.0301 4.40691 28.3776 4.93021 28.6241C5.45755 28.8665 6.10411 28.9958 6.87795 28.9958C8.44987 28.9958 9.77126 28.4948 10.8482 27.4947C11.9231 26.4925 12.5696 25.3106 12.7919 23.9468C13.0101 22.5891 13.1232 20.3403 13.1232 17.2087V7.62377C13.1232 5.38716 13.0545 3.9466 12.9252 3.29602C12.7919 2.64746 12.5151 2.19893 12.0908 1.95042C11.6705 1.7019 10.7431 1.57866 9.31868 1.57866H8.65192V0.633097Z" fill="#F5F9FF"/>
<path d="M33.1973 14.4711H35.2137C36.8362 14.4711 38.1454 14.3155 39.1436 13.9841C40.1396 13.6649 40.9741 12.9759 41.6368 11.9374C42.3036 10.8949 42.6349 9.61396 42.6349 8.09055C42.6349 5.761 42.0631 4.05172 40.9196 2.96069C39.778 1.86966 37.9252 1.32414 35.3592 1.32414C34.4177 1.32414 33.6964 1.35445 33.1973 1.41304V14.4711ZM33.1973 15.4833V21.4193C33.1973 23.6458 33.2519 25.0985 33.3569 25.7834C33.462 26.4684 33.7408 26.9836 34.1995 27.3129C34.6561 27.6503 35.5208 27.816 36.7877 27.816H37.7252V28.7595H24.7659V27.816H25.5175C26.7277 27.816 27.5662 27.6584 28.031 27.3634C28.4957 27.0543 28.7947 26.5775 28.92 25.9309C29.0432 25.2945 29.1058 23.7994 29.1058 21.4436V7.63798C29.1058 5.39328 29.0432 3.95272 28.92 3.30012C28.7947 2.64752 28.5159 2.20101 28.0835 1.95048C27.6531 1.70196 26.7176 1.57872 25.2912 1.57872H24.7659V0.633158L28.3057 0.489706C31.1344 0.374542 33.3408 0.319991 34.9248 0.319991C37.8383 0.319991 40.0851 0.548299 41.657 1.00087C43.235 1.46153 44.5241 2.26566 45.5323 3.43347C46.5405 4.58915 47.0436 6.058 47.0436 7.8279C47.0436 9.36544 46.6961 10.7171 46.0111 11.893C45.3262 13.0689 44.3443 13.9619 43.0633 14.568C41.7783 15.1762 39.5234 15.4833 36.2947 15.4833H33.1973Z" fill="#F5F9FF"/>
<path d="M70.5317 23.9059L80.7614 0.632595H89.4434V1.57816H88.4048C87.0147 1.57816 86.1055 1.6913 85.6772 1.91759C85.2468 2.15196 84.964 2.57423 84.8185 3.19248C84.671 3.81881 84.6003 5.3018 84.6003 7.63742V21.443C84.6003 23.6574 84.6548 25.106 84.766 25.793C84.8751 26.4739 85.1559 26.983 85.6045 27.3144C86.055 27.6498 86.9218 27.8154 88.1967 27.8154H89.4434V28.761H75.9143V27.8154H76.9164C78.1146 27.8154 78.945 27.6578 79.4137 27.3629C79.8744 27.0537 80.1775 26.5789 80.3088 25.9364C80.4421 25.2939 80.5068 23.7988 80.5068 21.443V3.53999L69.4265 28.761H68.4183L57.2289 3.53999V20.0206C57.2289 22.2754 57.2956 23.8089 57.435 24.6272C57.5744 25.4414 58.0008 26.1546 58.72 26.7709C59.4393 27.3851 60.4556 27.7326 61.7568 27.8154V28.761H51.6262V27.8154C52.8344 27.7508 53.8204 27.4194 54.5781 26.8335C55.3398 26.2435 55.8025 25.5182 55.9641 24.6676C56.1359 23.8049 56.2207 22.2168 56.2207 19.8893V7.63742C56.2207 5.39878 56.154 3.95216 56.0227 3.29956C55.8894 2.64696 55.6105 2.20045 55.1842 1.94991C54.764 1.70342 53.8345 1.57816 52.398 1.57816H51.6262V0.632595H60.2071L70.5317 23.9059Z" fill="#F5F9FF"/>
<path d="M94.7187 17.8692C94.7187 21.3484 95.4057 23.9568 96.7917 25.7065C98.1697 27.4461 100.241 28.3169 103.003 28.3169C105.427 28.3169 107.343 27.4461 108.747 25.7065C110.153 23.9568 110.86 21.3605 110.86 17.9016C110.86 14.5396 110.167 11.9575 108.781 10.1674C107.393 8.37929 105.385 7.4802 102.75 7.4802C100.154 7.4802 98.1697 8.35504 96.7917 10.1088C95.4057 11.8544 94.7187 14.4386 94.7187 17.8692ZM91.0354 17.7561C91.0354 14.4204 92.1507 11.7393 94.3813 9.71681C96.6119 7.6984 99.3921 6.68819 102.724 6.68819C106.088 6.68819 108.898 7.68628 111.159 9.68651C113.412 11.6867 114.542 14.4143 114.542 17.8692C114.542 21.2191 113.459 23.9285 111.303 26.0015C109.139 28.0805 106.296 29.1129 102.774 29.1129C99.3436 29.1129 96.5291 28.0805 94.3348 26.0015C92.1345 23.9285 91.0354 21.1767 91.0354 17.7561Z" fill="#F5F9FF"/>
<path d="M426.767 17.8692C426.767 21.3484 427.46 23.9568 428.842 25.7065C430.22 27.4461 432.291 28.3169 435.051 28.3169C437.474 28.3169 439.391 27.4461 440.797 25.7065C442.206 23.9568 442.909 21.3605 442.909 17.9016C442.909 14.5396 442.22 11.9575 440.826 10.1674C439.448 8.37929 437.431 7.4802 434.799 7.4802C432.204 7.4802 430.22 8.35504 428.842 10.1088C427.46 11.8544 426.767 14.4386 426.767 17.8692ZM423.084 17.7561C423.084 14.4204 424.203 11.7393 426.43 9.71681C428.66 7.6984 431.449 6.68819 434.781 6.68819C438.137 6.68819 440.955 7.68628 443.21 9.68651C445.467 11.6867 446.588 14.4143 446.588 17.8692C446.588 21.2191 445.507 23.9285 443.345 26.0015C441.187 28.0805 438.349 29.1129 434.825 29.1129C431.394 29.1129 428.584 28.0805 426.387 26.0015C424.185 23.9285 423.084 21.1767 423.084 17.7561Z" fill="#F5F9FF"/>
<path d="M123.928 17.5624C124.714 17.5382 125.522 17.5099 126.367 17.4675C127.205 17.4271 127.933 17.3099 128.553 17.1139C129.173 16.9179 129.674 16.6411 130.056 16.2774C130.44 15.9097 130.741 15.4208 130.957 14.8308C131.178 14.2328 131.291 13.4994 131.291 12.6245C131.291 11.1011 130.915 9.8828 130.165 8.96956C129.418 8.05431 127.781 7.59567 125.266 7.59567C124.878 7.59567 124.427 7.61588 123.928 7.65831V17.5624ZM140.179 28.7192H134.39C133.37 27.9899 131.798 26.1149 129.686 23.0701C129.008 22.0983 128.304 21.1689 127.575 20.2799C126.842 19.3889 126.341 18.8414 126.068 18.6474C125.789 18.4494 125.367 18.3544 124.785 18.3544H123.928V23.1146C123.928 24.8057 123.969 25.9169 124.045 26.4341C124.126 26.9574 124.342 27.3494 124.688 27.6019C125.035 27.8565 125.7 27.9798 126.678 27.9798H127.725V28.7192H117.358V27.9798H118.059C118.988 27.9798 119.629 27.8666 119.988 27.6322C120.346 27.3959 120.572 27.0322 120.665 26.5331C120.764 26.0402 120.817 24.8925 120.817 23.0843V12.477C120.817 10.7536 120.764 9.64236 120.665 9.1413C120.57 8.64225 120.352 8.29878 120.019 8.10684C119.685 7.91692 118.958 7.82398 117.846 7.82398H117.471V7.08248L120.558 6.93499C122.621 6.84811 124.253 6.80164 125.458 6.80164C127.521 6.80164 129.193 6.99156 130.483 7.3714C131.766 7.76135 132.812 8.38768 133.61 9.2605C134.402 10.1333 134.798 11.1779 134.798 12.3922C134.798 13.8105 134.281 15.0167 133.251 16.0209C132.216 17.0189 130.703 17.6453 128.696 17.8897C129.604 18.3161 131.054 19.8859 133.057 22.5913C134.689 24.7834 135.962 26.2119 136.889 26.9009C137.819 27.5757 138.914 27.9394 140.179 27.9798V28.7192Z" fill="#F5F9FF"/>
<path d="M155.153 19.4818H164.501V20.2173C163.471 20.2173 162.768 20.3304 162.406 20.5365C162.034 20.7426 161.79 21.0881 161.673 21.575C161.558 22.0619 161.499 23.2378 161.499 25.1047V27.414C161.248 27.3716 161.012 27.3494 160.814 27.3494C159.996 27.3494 158.923 27.6019 157.597 28.0969C155.791 28.7758 154.116 29.1152 152.579 29.1152C149.485 29.1152 146.913 28.0929 144.864 26.0543C142.816 24.0197 141.787 21.4437 141.787 18.314C141.787 15.2228 142.773 12.5073 144.731 10.1818C146.695 7.85226 149.356 6.69051 152.722 6.69051C155.619 6.69051 158.014 7.74719 159.913 9.86864C160.277 9.11704 160.495 8.29877 160.59 7.42797H161.329V14.6712H160.59C160.285 12.4588 159.44 10.7091 158.064 9.41405C156.688 8.13108 155.017 7.4805 153.045 7.4805C151.015 7.4805 149.247 8.23816 147.738 9.7454C146.228 11.2486 145.477 13.9257 145.477 17.7746C145.477 21.6073 146.2 24.3187 147.647 25.923C149.099 27.5191 150.894 28.3172 153.045 28.3172C154.148 28.3172 155.151 28.0929 156.05 27.6383C156.953 27.1898 157.569 26.6402 157.89 25.9896C158.222 25.337 158.387 24.5167 158.387 23.5247C158.387 22.367 158.305 21.5891 158.149 21.2073C157.997 20.8173 157.757 20.5567 157.436 20.4213C157.117 20.29 156.525 20.2173 155.67 20.2173H155.153V19.4818Z" fill="#F5F9FF"/>
<path d="M179.863 19.9364L176.093 10.7879L172.317 19.9364H179.863ZM180.19 20.7325H171.987L171.419 22.1044C170.591 24.0965 170.177 25.3936 170.177 25.9977C170.177 26.6523 170.395 27.1413 170.838 27.4787C171.282 27.8161 171.852 27.9798 172.553 27.9798V28.7192H166.043V27.9798C167.003 27.8262 167.716 27.4928 168.193 26.9655C168.662 26.4362 169.229 25.329 169.89 23.6338C169.961 23.4742 170.221 22.858 170.676 21.7791L176.99 6.80164H177.622L184.823 23.9652L185.807 26.226C186.036 26.7352 186.337 27.1372 186.71 27.4241C187.09 27.7272 187.656 27.907 188.41 27.9798V28.7192H179.918V27.9798C180.956 27.9798 181.659 27.901 182.025 27.7494C182.391 27.5939 182.574 27.2868 182.574 26.8322C182.574 26.5998 182.33 25.9007 181.839 24.741L180.19 20.7325Z" fill="#F5F9FF"/>
<path d="M210.576 29.2245L195.233 8.93132V23.9411C195.233 25.1877 195.294 26.01 195.413 26.404C195.536 26.7919 195.88 27.1576 196.451 27.4849C197.025 27.8162 197.884 27.9819 199.029 27.9819V28.7194H190.986V27.9819C192.008 27.9072 192.79 27.7213 193.33 27.4142C193.869 27.1131 194.184 26.7858 194.287 26.4343C194.39 26.0827 194.437 25.2523 194.437 23.9471V12.4792C194.437 10.8204 194.36 9.70716 194.205 9.14144C194.051 8.58582 193.807 8.22013 193.469 8.06051C193.13 7.9009 192.376 7.82412 191.214 7.82412V7.08263H197.666L210.467 24.0138V11.073C210.467 10.1193 210.37 9.44855 210.172 9.06467C209.978 8.68078 209.572 8.38176 208.97 8.15547C208.362 7.9312 207.635 7.82412 206.784 7.82412V7.08263H214.601V7.82412C213.694 7.89484 212.983 8.07263 212.466 8.34741C211.946 8.62017 211.609 8.95152 211.474 9.34146C211.33 9.73343 211.257 10.3921 211.257 11.3174V29.2245H210.576Z" fill="#F5F9FF"/>
<path d="M251.453 18.2829H252.396V28.1627H251.453C251.204 27.0394 250.754 26.0494 250.101 25.1866C247.64 27.9748 244.496 29.3568 240.671 29.3568C236.628 29.3568 233.325 28.0738 230.761 25.5039C228.197 22.9359 226.914 19.5396 226.914 15.3128C226.914 12.5368 227.504 9.9203 228.686 7.46952C229.868 5.0147 231.523 3.19632 233.642 2.00831C235.76 0.822317 238.081 0.226291 240.609 0.226291C242.696 0.226291 244.597 0.656642 246.294 1.51734C247.992 2.37401 249.26 3.32563 250.101 4.37019C250.705 3.20036 251.079 1.98608 251.196 0.733419H252.144L252.396 11.3649H251.453C250.832 7.59277 249.572 4.95409 247.66 3.46706C245.759 1.98002 243.607 1.2365 241.209 1.2365C238.281 1.2365 235.952 2.42856 234.222 4.82478C232.493 7.21495 231.638 10.6376 231.638 15.0906C231.638 19.3072 232.567 22.5419 234.456 24.7967C236.352 27.0394 238.699 28.1627 241.498 28.1627C242.999 28.1627 244.537 27.8011 246.105 27.0656C247.672 26.3322 248.915 25.0917 249.828 23.3481C250.748 21.6024 251.287 19.9154 251.453 18.2829Z" fill="#F5F9FF"/>
<path d="M275.191 17.7867H263.925V23.0176C263.925 24.7228 263.974 25.8421 264.052 26.3675C264.135 26.8948 264.361 27.2868 264.701 27.5433C265.054 27.7999 265.721 27.9232 266.701 27.9232H267.265V28.6606H257.466V27.9232H258.031C258.961 27.9232 259.601 27.808 259.961 27.5737C260.325 27.3433 260.559 26.9776 260.658 26.4867C260.753 25.9917 260.807 24.838 260.807 23.0277V12.4245C260.807 10.699 260.753 9.58781 260.658 9.08674C260.559 8.59174 260.337 8.24826 260.009 8.05228C259.688 7.86438 258.969 7.76538 257.868 7.76538H257.466V7.03197H267.265V7.76538H266.863C265.794 7.76538 265.095 7.85428 264.764 8.03006C264.43 8.20785 264.202 8.53315 264.095 9.00795C263.976 9.48881 263.925 10.6263 263.925 12.4245V16.7118H275.191V12.4245C275.191 10.699 275.147 9.58781 275.054 9.08674C274.955 8.59174 274.745 8.24826 274.423 8.05228C274.104 7.86438 273.399 7.76538 272.31 7.76538H271.74V7.03197H281.535V7.76538H281.224C280.151 7.76538 279.458 7.85428 279.139 8.03006C278.808 8.20785 278.588 8.53315 278.478 9.00795C278.363 9.48881 278.309 10.6263 278.309 12.4245V23.0277C278.309 24.7269 278.351 25.8421 278.432 26.3715C278.507 26.8988 278.723 27.2868 279.068 27.5433C279.426 27.7999 280.079 27.9232 281.047 27.9232H281.535V28.6606H271.74V27.9232H272.484C273.393 27.9232 274.023 27.808 274.375 27.5737C274.728 27.3373 274.955 26.9736 275.054 26.4806C275.147 25.9856 275.191 24.8319 275.191 23.0176V17.7867Z" fill="#F5F9FF"/>
<path d="M297.498 19.886L293.729 10.7355L289.951 19.886H297.498ZM297.819 20.68H289.628L289.054 22.0559C288.228 24.042 287.816 25.3371 287.816 25.9432C287.816 26.5918 288.03 27.0888 288.476 27.4202C288.919 27.7556 289.489 27.9233 290.192 27.9233V28.6587H283.674V27.9233C284.639 27.7737 285.355 27.4363 285.829 26.911C286.296 26.3857 286.864 25.2684 287.533 23.5753C287.599 23.4177 287.856 22.7974 288.311 21.7266L294.625 6.7411H295.259L302.462 23.9046L303.444 26.1695C303.666 26.6746 303.971 27.0828 304.349 27.3777C304.725 27.6667 305.289 27.8485 306.046 27.9233V28.6587H297.552V27.9233C298.587 27.9233 299.296 27.8445 299.66 27.697C300.023 27.5374 300.211 27.2302 300.211 26.7817C300.211 26.5453 299.967 25.8483 299.474 24.6845L297.819 20.68Z" fill="#F5F9FF"/>
<path d="M308.803 28.4382V21.4657H309.595C310.498 25.9995 312.646 28.2624 316.024 28.2624C317.54 28.2624 318.726 27.826 319.556 26.9653C320.39 26.0965 320.805 25.1308 320.805 24.0579C320.805 22.977 320.443 22.0658 319.709 21.3324C318.982 20.6111 317.643 19.8372 315.697 19.0089C313.959 18.2654 312.654 17.6128 311.777 17.0531C310.898 16.4955 310.205 15.7742 309.71 14.8791C309.219 13.982 308.975 13.0324 308.975 12.0222C308.975 10.4806 309.508 9.19969 310.583 8.1713C311.658 7.14492 313.012 6.62971 314.66 6.62971C315.582 6.62971 316.444 6.77922 317.257 7.07825C318.067 7.37121 318.897 7.99148 319.75 8.92492C320.245 8.34303 320.522 7.71064 320.586 7.03178H321.259V12.691H320.586C320.178 11.0605 319.457 9.76945 318.422 8.83198C317.392 7.8945 316.192 7.42778 314.83 7.42778C313.535 7.42778 312.583 7.77125 311.975 8.46022C311.373 9.14918 311.068 9.90684 311.068 10.7292C311.068 11.7212 311.452 12.5597 312.212 13.2405C312.955 13.9356 314.311 14.7276 316.257 15.6004C318.117 16.4348 319.477 17.1076 320.324 17.6128C321.17 18.1179 321.851 18.8189 322.368 19.712C322.872 20.6111 323.134 21.6374 323.134 22.8073C323.134 24.656 322.518 26.1612 321.273 27.3189C320.041 28.4786 318.392 29.0585 316.327 29.0585C313.947 29.0585 311.963 28.1452 310.377 26.3309C310.025 26.8259 309.765 27.529 309.595 28.4382H308.803Z" fill="#F5F9FF"/>
<path d="M344.398 21.9206H345.136L344.665 28.6587H326.844V27.9253H327.293C328.354 27.9253 329.047 27.7818 329.354 27.4929C329.669 27.206 329.859 26.8403 329.948 26.4039C330.029 25.9634 330.071 24.8381 330.071 23.0278V12.4246C330.071 10.7698 330.029 9.68688 329.938 9.16763C329.843 8.64434 329.635 8.28066 329.315 8.0766C328.982 7.86647 328.293 7.76343 327.24 7.76343V7.03204H342.64L343.156 12.4023H342.42C342.075 10.9032 341.664 9.83437 341.171 9.20804C340.682 8.57362 340.105 8.1756 339.424 8.01195C338.749 7.84627 337.664 7.76343 336.163 7.76343H333.191V16.825H335.468C336.514 16.825 337.246 16.7361 337.658 16.5584C338.078 16.3765 338.351 16.1038 338.482 15.7381C338.62 15.3703 338.68 14.6571 338.68 13.5984H339.414V20.9568H338.68C338.68 19.7587 338.583 18.9566 338.381 18.5424C338.181 18.1383 337.894 17.8696 337.504 17.7443C337.116 17.6272 336.466 17.5625 335.546 17.5625H333.191V22.6762C333.191 25.2341 333.348 26.7433 333.684 27.1898C334.015 27.6444 334.898 27.8687 336.342 27.8687H337.943C339.078 27.8687 340.014 27.7354 340.749 27.4727C341.47 27.206 342.172 26.6241 342.832 25.7129C343.493 24.8057 344.02 23.543 344.398 21.9206Z" fill="#F5F9FF"/>
<path d="M365.74 10.4395C368.631 8.7565 370.068 6.93811 370.068 4.9783C370.068 3.81453 369.753 2.87099 369.106 2.1497C368.462 1.43043 367.603 1.07685 366.548 1.07685C365.504 1.07685 364.667 1.42235 364.031 2.10929C363.4 2.79422 363.089 3.6529 363.089 4.67927C363.089 6.08549 363.976 8.00894 365.74 10.4395ZM363.58 13.06C362.057 13.9833 360.881 15.0643 360.058 16.2987C359.22 17.5393 358.81 18.7374 358.81 19.889C358.81 21.667 359.527 23.3541 360.966 24.932C362.402 26.5201 364.025 27.3141 365.839 27.3141C367.863 27.3141 369.726 26.316 371.436 24.3178C368.395 19.6789 365.774 15.9331 363.58 13.06ZM372.907 11.0113H382.217V12.0215C381.047 12.3347 380.023 12.8984 379.152 13.7065C378.275 14.5107 377.374 16.0321 376.446 18.2666C375.671 20.1133 374.951 21.4589 374.301 22.3277C375.848 24.5461 377.067 25.9483 377.948 26.5464C378.833 27.1424 379.77 27.4374 380.768 27.4374C382.13 27.4374 383.183 26.7848 383.916 25.4856H384.92C384.621 26.6757 383.969 27.6333 382.981 28.3587C381.989 29.086 380.839 29.4497 379.542 29.4497C376.711 29.4497 374.23 28.0394 372.084 25.2068C369.538 28.0394 366.845 29.4497 364.002 29.4497C362.61 29.4497 361.289 29.1143 360.022 28.4435C358.749 27.7728 357.719 26.8312 356.923 25.617C356.12 24.4087 355.724 23.0045 355.724 21.4185C355.724 19.6001 356.22 18.0767 357.216 16.8402C358.206 15.6078 360.109 14.048 362.925 12.1751C361.228 9.81924 360.382 7.68971 360.382 5.78849C360.382 4.28327 360.96 2.94575 362.113 1.76582C363.275 0.58993 364.728 -3.3711e-05 366.477 -3.3711e-05C368.035 -3.3711e-05 369.441 0.44446 370.708 1.32335C371.959 2.20627 372.589 3.36196 372.589 4.78636C372.589 7.01489 370.508 9.16866 366.354 11.2598C368.936 14.739 371.363 18.105 373.654 21.3539C374.472 20.2042 375.125 19.0081 375.606 17.7757C376.073 16.5473 376.323 15.5876 376.323 14.8925C376.323 13.2378 375.184 12.2801 372.907 12.0215V11.0113Z" fill="#F5F9FF"/>
<path d="M416.838 18.189H417.782V28.0668H416.838C416.59 26.9475 416.133 25.9555 415.487 25.0928C413.026 27.8749 409.874 29.2629 406.061 29.2629C402.018 29.2629 398.713 27.98 396.145 25.412C393.579 22.84 392.296 19.4416 392.296 15.2149C392.296 12.4368 392.89 9.82037 394.074 7.37363C395.252 4.92083 396.911 3.10245 399.028 1.91242C401.141 0.728446 403.463 0.132419 405.995 0.132419C408.086 0.132419 409.983 0.55671 411.68 1.42145C413.375 2.27609 414.646 3.23176 415.487 4.2743C416.093 3.10245 416.461 1.89221 416.59 0.633485H417.527L417.782 11.267H416.838C416.218 7.49486 414.957 4.86224 413.046 3.37318C411.143 1.88009 408.991 1.13657 406.597 1.13657C403.663 1.13657 401.341 2.33267 399.608 4.72889C397.88 7.11502 397.024 10.5396 397.024 14.9967C397.024 19.2154 397.967 22.4501 399.848 24.7008C401.731 26.9415 404.077 28.0668 406.886 28.0668C408.387 28.0668 409.922 27.7011 411.492 26.9657C413.058 26.2384 414.309 25.0019 415.214 23.2562C416.133 21.5085 416.675 19.8195 416.838 18.189Z" fill="#F5F9FF"/>
<path d="M448.399 26.9239C448.399 26.2733 448.632 25.7156 449.102 25.253C449.563 24.7862 450.121 24.5579 450.773 24.5579C451.432 24.5579 451.998 24.7862 452.464 25.253C452.925 25.7156 453.162 26.2733 453.162 26.9239C453.162 27.5906 452.925 28.1482 452.454 28.619C451.98 29.0837 451.416 29.316 450.773 29.316C450.109 29.316 449.549 29.0736 449.088 28.5947C448.632 28.1119 448.399 27.5562 448.399 26.9239Z" fill="#F5F9FF"/>
</svg>
