<svg width="156" height="30" viewBox="0 0 156 30" fill="none" xmlns="http://www.w3.org/2000/svg">
<path d="M149.768 14.1213C149.768 12.6103 150.971 11.4065 152.49 11.4065C154.018 11.4065 155.22 12.6094 155.22 14.1213C155.22 15.6323 154.018 16.8361 152.49 16.8361C150.972 16.8361 149.768 15.6323 149.768 14.1213ZM154.805 14.1213C154.805 12.8451 153.739 11.8223 152.49 11.8223C151.253 11.8223 150.185 12.8451 150.185 14.1213C150.185 15.4058 151.253 16.4203 152.49 16.4203C153.739 16.4193 154.805 15.4058 154.805 14.1213Z" fill="#F5F9FF"/>
<path d="M153.71 15.6961H153.213L152.318 14.3205H151.821V15.6961H151.406V12.7194H152.699C153.232 12.7194 153.756 12.8642 153.756 13.5065C153.756 14.094 153.349 14.3112 152.815 14.3205L153.71 15.6961ZM152.317 13.9047C152.688 13.9047 153.339 13.978 153.339 13.4981C153.339 13.2002 152.931 13.1361 152.616 13.1361H151.82V13.9056H152.317V13.9047Z" fill="#F5F9FF"/>
<path d="M42.3247 6.04919L48.3726 18.9354L54.3212 6.04919H58.4524V6.62742C56.2732 6.79912 56.1202 6.90864 56.2018 9.67726L56.4003 18.6811C56.4726 21.4868 56.5458 21.5592 58.7426 21.7402V22.2748H52.1513V21.7402C54.2498 21.5601 54.3212 21.4868 54.3036 18.6811L54.2044 8.60155H54.095L47.9747 22.039H47.3507L41.5735 8.95332H41.5272L41.274 15.9394C41.1757 18.2829 41.1757 19.6584 41.274 20.4362C41.402 21.3587 41.9973 21.613 43.6257 21.7393V22.2748H37.7493V21.7402C39.1505 21.6149 39.6753 21.3596 39.846 20.4371C39.9999 19.6593 40.1538 18.1659 40.2707 15.6869L40.5517 10.429C40.7232 7.072 40.5516 6.80005 38.2 6.62835V6.04919H42.3247Z" fill="#F5F9FF"/>
<path d="M69.5871 21.3883L69.3608 20.8352C68.9083 21.0616 68.4836 21.16 68.2842 21.16C67.905 21.16 67.5795 20.7349 67.5795 19.8133V14.1833C67.5795 13.2783 67.4617 12.4003 66.6383 11.758C66.132 11.3775 65.3632 11.152 64.6585 11.152C62.8864 11.4778 61.4129 12.4282 60.8074 12.8802C60.2649 13.2783 59.957 13.631 59.957 13.9577C59.957 14.4097 60.6358 14.8079 61.0336 14.8079C61.3044 14.8079 61.5297 14.6362 61.6113 14.3373C61.8821 13.2793 62.4079 12.2295 63.6366 12.2295C64.9561 12.2295 65.6804 13.0528 65.6804 14.6093V15.4511C64.9385 15.9848 62.8864 16.7106 61.6577 17.2062C60.3641 17.7324 59.7586 18.5826 59.7586 19.7307C59.7586 21.1155 60.9335 22.6181 62.7593 22.6181C63.2833 22.6181 64.6316 21.6584 65.6794 20.9902C65.8334 21.6148 66.2126 22.465 67.0537 22.6181L69.5871 21.3883ZM65.6813 20.256C65.0127 20.7823 64.0808 21.2436 63.5114 21.2436C62.7612 21.2436 61.8571 20.6087 61.8571 19.288C61.8571 18.3831 62.2818 17.8856 63.1599 17.4057C63.6384 17.1626 65.1397 16.4841 65.6813 16.2576V20.256Z" fill="#F5F9FF"/>
<path d="M73.4725 19.0156C73.4725 20.9619 74.3943 21.3155 75.0721 21.3155C75.5247 21.3155 76.0671 21.1159 76.5466 20.8356L76.7997 21.3888L74.7476 22.4107C74.4944 22.5388 74.168 22.6195 73.9974 22.6195C72.3969 22.6195 71.5206 21.5884 71.5206 19.5892V12.4036H69.6938L69.5945 12.1595L70.3271 11.4541H71.5215V9.87905L73.148 8.23254H73.4744V11.4541H76.3759C76.566 11.7344 76.5039 12.1326 76.196 12.4036H73.4753V19.0156H73.4725Z" fill="#F5F9FF"/>
<path d="M81.3405 12.9089C82.1908 12.004 83.5373 11.2076 84.8846 11.1538C87.0369 11.1093 88.337 12.5293 88.337 14.7559V20.0685C88.337 21.4626 88.465 21.5879 89.9913 21.7141V22.2756H84.6862V21.741C86.2682 21.5869 86.3859 21.4616 86.3859 20.0685V15.5077C86.3859 13.7154 85.734 12.5293 83.9184 12.5293C82.8863 12.5841 81.9645 12.9646 81.3405 13.6876V20.0685C81.3405 21.4626 81.4582 21.5879 82.9864 21.741V22.2756H77.6887V21.741C79.2614 21.5869 79.3885 21.4616 79.3885 20.0685V7.57864C79.3885 6.05001 79.344 6.07692 77.6164 5.92285V5.42538C78.7913 5.19891 80.3928 4.80074 81.3414 4.54736L81.3405 12.9089Z" fill="#F5F9FF"/>
<path d="M93.0471 6.62835L92.2784 6.72766C91.148 6.87245 91.0024 7.09891 91.3566 8.20339L94.7283 18.8537H94.7728L98.7788 6.30257H99.375L103.769 18.8806L103.823 18.8537C103.823 18.8537 106.427 10.4105 106.851 8.60156C107.196 7.15367 107.068 6.85481 105.947 6.72766L105.224 6.62835V6.04919H110.523V6.62742C108.876 6.82697 108.696 6.92721 107.874 9.2067C107.648 9.8304 105.821 15.5857 103.723 22.4632H103.054L98.5525 10.2286L98.4987 10.274L94.4204 22.4632H93.7249L89.4028 9.02571C88.7249 6.94484 88.3456 6.77221 86.9259 6.62742V6.04919H93.0471V6.62835Z" fill="#F5F9FF"/>
<path d="M113.37 22.6172C115.892 22.6172 118.796 20.6078 118.796 16.7096C118.796 13.5865 116.517 11.152 113.345 11.152C111.074 11.152 107.82 12.9804 107.82 17.1876C107.819 19.7855 109.844 22.6172 113.37 22.6172ZM113.65 21.8663C111.473 21.8663 110.098 19.4318 110.098 16.2567C110.098 13.6319 111.373 11.9038 113.044 11.9038C115.322 11.9038 116.516 14.483 116.516 17.2609C116.516 20.6356 115.197 21.8663 113.65 21.8663Z" fill="#F5F9FF"/>
<path d="M123.543 20.0673C123.543 21.4613 123.66 21.5866 125.612 21.7398V22.2753H119.862V21.7407C121.462 21.5866 121.589 21.4613 121.589 20.0682V14.2841C121.589 12.7815 121.535 12.7545 119.889 12.5559V12.103C121.064 11.8496 122.285 11.5517 123.542 11.108V13.6864H123.587C124.165 12.71 125.385 11.1526 126.587 11.1526C127.337 11.1526 127.934 11.831 127.934 12.3285C127.934 12.7536 127.662 13.3337 127.139 13.5592C126.866 13.6855 126.633 13.6316 126.515 13.5314C126.163 13.2335 125.881 13.007 125.439 13.007C124.831 13.007 124.182 13.4868 123.54 14.7899V20.0673H123.543Z" fill="#F5F9FF"/>
<path d="M131.923 16.3383C132.818 16.1574 133.198 15.8316 133.54 15.4511C133.939 15.0353 134.897 13.6598 135.367 12.9627C135.665 12.5098 135.648 12.2295 135.313 12.185L134.645 12.1033V11.5334L139.363 11.3079V11.8508L138.369 12.0866C137.545 12.2583 137.165 12.5841 136.297 13.4073C135.719 13.9605 135.34 14.4301 134.164 15.8325C134.815 16.6827 137.42 19.6601 138.241 20.5381C138.91 21.2445 139.344 21.5879 139.688 21.6417L140.266 21.7419V22.2756H137.138C136.812 21.8496 135.845 20.6913 135.168 19.8597L133.114 17.4335C132.718 16.9639 132.545 16.9091 132.347 16.9091C132.238 16.9091 132.093 16.937 131.921 16.9815V20.0685C131.921 21.4626 132.039 21.5879 133.711 21.741V22.2756H128.069V21.741C129.841 21.5869 129.968 21.4616 129.968 20.0685V7.57864C129.968 6.07692 129.914 6.05001 128.169 5.92285V5.42538C129.345 5.19891 130.962 4.80074 131.921 4.54736V16.3383H131.923Z" fill="#F5F9FF"/>
<path d="M141.273 18.8081C141.67 20.256 142.791 21.8672 144.272 21.8672C145.168 21.8672 146.045 21.2435 146.045 20.0128C146.045 18.99 145.466 18.2577 144.093 17.6591C142.464 16.9361 141.09 16.085 141.09 14.4292C141.09 12.6286 142.645 11.1538 144.823 11.1538C145.718 11.1538 146.415 11.3524 146.922 11.5882C147.165 12.158 147.418 13.5605 147.473 13.9865L146.868 14.1313C146.118 12.4755 145.321 11.9047 144.372 11.9047C143.251 11.9047 142.715 12.7818 142.715 13.6059C142.715 14.6371 143.792 15.3341 144.896 15.787C146.721 16.5379 147.915 17.5069 147.915 19.1886C147.915 21.4867 145.791 22.6181 143.892 22.6181C142.617 22.6181 141.469 22.0844 140.991 21.6862C140.845 21.315 140.692 19.9395 140.692 18.9612L141.273 18.8081Z" fill="#F5F9FF"/>
<mask id="mask0_550_2002" style="mask-type:luminance" maskUnits="userSpaceOnUse" x="0" y="0" width="34" height="30">
<path d="M33.6311 0H0.592102V30H33.6311V0Z" fill="white"/>
</mask>
<g mask="url(#mask0_550_2002)">
<mask id="mask1_550_2002" style="mask-type:luminance" maskUnits="userSpaceOnUse" x="0" y="-1" width="34" height="32">
<path d="M31.9944 20.7434C30.9178 18.0305 29.9534 15.2637 28.9176 12.3995C28.326 10.7595 27.8049 9.07029 27.2207 7.42007C26.5882 5.62784 25.9317 3.90987 25.0517 2.38495C24.6873 1.75289 23.7303 -0.0254077 22.765 -0.000348182C22.3375 0.0126457 21.9007 0.411742 21.7375 0.585303C21.2256 1.12176 20.6553 2.23459 20.2696 2.92698C19.6863 3.97391 18.6319 5.42922 17.7733 6.43903C17.4867 6.77502 17.0815 7.3254 16.7458 7.60941C16.2191 8.05305 15.6646 8.64984 14.9839 8.92643C14.7697 9.01089 14.3265 9.1399 14.103 9.21879C13.5642 9.40905 13.1849 9.46474 12.7816 9.80444C12.0824 10.3947 11.5918 10.9915 11.0197 11.7071C10.8379 11.9326 10.2203 12.7559 9.99222 13.0241C7.17135 14.2066 3.44821 15.6461 0.592102 16.8295C3.27666 18.721 5.81377 20.5429 7.2715 21.5954C7.38092 21.6752 7.83066 21.3532 8.00963 21.2984C8.5994 21.1165 9.32178 21.0191 9.842 21.2205C11.4249 21.8247 12.8289 24.8652 13.5132 26.4885C13.9954 27.6339 14.422 28.8729 14.9811 30.0006C16.4287 29.5644 17.6193 28.6789 18.6523 27.8056C19.7688 26.8635 20.7926 25.5641 21.7356 24.4392C23.555 22.2776 26.0319 19.2825 28.7841 20.6348C29.2366 20.8603 29.8802 21.213 30.252 21.5128C31.0736 22.1737 31.6384 22.7315 31.7663 22.8679C32.0594 23.1426 33.0256 24.0615 33.6293 24.5868C33.0571 23.2456 32.5471 22.1375 31.9944 20.7434ZM31.7218 22.8289C31.8081 22.9143 31.8164 22.918 31.7682 22.867C31.6755 22.7797 31.6467 22.7537 31.7218 22.8289Z" fill="white"/>
</mask>
<g mask="url(#mask1_550_2002)">
<rect x="0.592102" y="0.00012207" width="33.0382" height="29.9995" fill="#F5F9FF"/>
</g>
</g>
</svg>
