<svg width="231" height="30" viewBox="0 0 231 30" fill="none" xmlns="http://www.w3.org/2000/svg">
<path d="M99.9327 19.502H115.155L107.114 6.51695L92.3315 29.97H85.6092L103.589 1.83234C103.98 1.27086 104.501 0.811486 105.107 0.4927C105.713 0.173914 106.387 0.00500024 107.072 0.000109329C107.756 -0.00478158 108.432 0.154493 109.043 0.464589C109.653 0.774686 110.181 1.22657 110.58 1.7824L128.61 29.97H121.887L118.721 24.726H103.319L99.9627 19.502M169.812 24.726V0.284117H164.099V27.1333C164.098 27.5064 164.173 27.8758 164.319 28.2192C164.465 28.5626 164.679 28.8728 164.948 29.131C165.218 29.4076 165.542 29.6271 165.899 29.7764C166.255 29.9257 166.639 30.0017 167.026 30H192.996L196.382 24.756H169.782M75.351 20.361C78.0133 20.361 80.5667 19.3034 82.4492 17.4208C84.3318 15.5383 85.3894 12.9849 85.3894 10.3226C85.3894 7.66021 84.3318 5.10689 82.4492 3.22432C80.5667 1.34174 78.0133 0.284117 75.351 0.284117H50.3797V29.97H56.0831V5.53808H75.0014C76.2756 5.53808 77.4976 6.04426 78.3987 6.94528C79.2997 7.84629 79.8059 9.06833 79.8059 10.3426C79.8059 11.6168 79.2997 12.8388 78.3987 13.7398C77.4976 14.6409 76.2756 15.147 75.0014 15.147H58.9099L75.9503 29.97H84.2308L72.7839 20.361H75.351ZM15.3 29.97H32.5502C36.4188 29.8696 40.0952 28.2623 42.7959 25.4906C45.4967 22.7189 47.0081 19.002 47.0081 15.1321C47.0081 11.2621 45.4967 7.54524 42.7959 4.77353C40.0952 2.00181 36.4188 0.394488 32.5502 0.294105H15.3C13.319 0.242704 11.3479 0.588483 9.50268 1.31105C7.65751 2.03362 5.9757 3.11834 4.55644 4.50126C3.13717 5.88417 2.00919 7.53728 1.239 9.36309C0.468814 11.1889 0.0720215 13.1504 0.0720215 15.1321C0.0720215 17.1137 0.468814 19.0752 1.239 20.901C2.00919 22.7268 3.13717 24.3799 4.55644 25.7629C5.9757 27.1458 7.65751 28.2305 9.50268 28.9531C11.3479 29.6756 13.319 30.0214 15.3 29.97ZM32.1606 24.746H15.6795C13.186 24.6656 10.8215 23.6185 9.0861 21.8262C7.35066 20.0339 6.38035 17.6369 6.38035 15.142C6.38035 12.6472 7.35066 10.2502 9.0861 8.4579C10.8215 6.66559 13.186 5.61851 15.6795 5.53808H32.1606C33.4479 5.49656 34.7304 5.71425 35.9318 6.17821C37.1333 6.64216 38.2292 7.34292 39.1545 8.23883C40.0798 9.13475 40.8155 10.2075 41.318 11.3934C41.8204 12.5793 42.0793 13.8541 42.0793 15.142C42.0793 16.43 41.8204 17.7048 41.318 18.8907C40.8155 20.0766 40.0798 21.1493 39.1545 22.0453C38.2292 22.9412 37.1333 23.6419 35.9318 24.1059C34.7304 24.5698 33.4479 24.7875 32.1606 24.746ZM140.526 29.97H158.136L161.472 24.746H140.916C139.628 24.7875 138.346 24.5698 137.144 24.1059C135.943 23.6419 134.847 22.9412 133.922 22.0453C132.996 21.1493 132.261 20.0766 131.758 18.8907C131.256 17.7048 130.997 16.43 130.997 15.142C130.997 13.8541 131.256 12.5793 131.758 11.3934C132.261 10.2075 132.996 9.13475 133.922 8.23883C134.847 7.34292 135.943 6.64216 137.144 6.17821C138.346 5.71425 139.628 5.49656 140.916 5.53808H157.646L161.023 0.294105H140.526C138.545 0.242704 136.574 0.588483 134.729 1.31105C132.884 2.03362 131.202 3.11834 129.783 4.50126C128.363 5.88417 127.235 7.53728 126.465 9.36309C125.695 11.1889 125.298 13.1504 125.298 15.1321C125.298 17.1137 125.695 19.0752 126.465 20.901C127.235 22.7268 128.363 24.3799 129.783 25.7629C131.202 27.1458 132.884 28.2305 134.729 28.9531C136.574 29.6756 138.545 30.0214 140.526 29.97ZM210.316 24.746C208.223 24.7468 206.187 24.0643 204.518 22.8023C202.848 21.5403 201.636 19.7677 201.067 17.754H225.458L228.815 12.5201H201.067C201.635 10.5055 202.846 8.73203 204.516 7.46976C206.186 6.2075 208.223 5.52565 210.316 5.52809H227.057L230.403 0.284117H209.926C206.058 0.384499 202.381 1.99183 199.681 4.76354C196.98 7.53525 195.468 11.2521 195.468 15.1221C195.468 18.992 196.98 22.7089 199.681 25.4806C202.381 28.2523 206.058 29.8596 209.926 29.96H227.536L230.882 24.736H210.306" fill="#F5F9FF"/>
</svg>
