<svg width="164" height="30" viewBox="0 0 164 30" fill="none" xmlns="http://www.w3.org/2000/svg">
<path d="M44.3195 8.61015C44.7573 8.61015 45.1326 8.96456 45.1326 9.42321V24.9548C45.1326 25.3926 44.7365 25.747 44.3195 25.747H42.2139C41.8178 25.747 41.4217 25.4343 41.4217 24.9965V23.558C40.3584 25.1216 38.5238 26.2057 35.8553 26.2057C31.3939 26.2057 28.6419 23.2453 28.6419 18.8464V9.38152C28.6419 8.94371 29.0381 8.5893 29.455 8.5893H31.5606C31.9984 8.5893 32.3529 8.94371 32.3529 9.38152V18.2418C32.3529 21.098 33.8539 22.9951 36.8143 22.9951C39.7121 22.9951 41.4217 21.0354 41.4217 18.2835V9.38152C41.4217 8.94371 41.8178 8.5893 42.2139 8.5893H44.3195M13.2563 0C6.04292 0 0.226379 5.60806 0.226379 13.0924C0.226379 20.5976 6.04292 26.1849 13.2563 26.1849C14.4863 26.1849 15.6746 26.0181 16.8004 25.7054L18.218 29.3537C18.364 29.7498 18.6558 30 19.177 30H21.4286C21.9706 30 22.3668 29.6456 22.1166 28.9576L20.282 24.1835C23.8886 21.9111 26.2861 17.8874 26.2861 13.0716C26.2861 5.60806 20.4696 0 13.2563 0ZM18.9269 20.7019L17.2799 16.4281C17.134 16.0737 16.8421 15.7401 16.2167 15.7401H14.0693C13.5273 15.7401 13.1103 16.0945 13.3605 16.7825L15.5287 22.3906C14.8198 22.5782 14.0485 22.6616 13.2563 22.6616C7.98177 22.6616 4.22916 18.5129 4.22916 13.0924C4.22916 7.67199 7.98177 3.52328 13.2563 3.52328C18.5308 3.52328 22.2834 7.67199 22.2834 13.0924C22.2834 16.2613 21.0116 18.9715 18.9269 20.7019ZM163.527 24.8714C163.715 25.3092 163.486 25.7262 162.964 25.7262H160.609C160.171 25.7262 159.816 25.5177 159.67 25.0799L155.313 13.3634L150.894 25.0799C150.706 25.5386 150.393 25.7262 149.955 25.7262H147.85C147.412 25.7262 147.099 25.5386 146.912 25.0799L142.45 13.3009L138.051 25.0799C137.864 25.5177 137.551 25.7262 137.113 25.7262H134.903C134.465 25.7262 134.153 25.5177 133.965 25.0799L129.608 13.3009L125.105 25.0799C124.917 25.5386 124.604 25.7262 124.167 25.7262H122.061C121.623 25.7262 121.31 25.5386 121.123 25.0799L116.724 13.3009L112.325 25.0799C112.179 25.5177 111.825 25.7262 111.387 25.7262H109.094C108.552 25.7262 108.343 25.2884 108.531 24.8714L114.493 9.27728C114.681 8.81862 114.994 8.5893 115.431 8.5893H117.996C118.433 8.5893 118.746 8.79778 118.934 9.27728L123.228 20.6602L127.481 9.27728C127.669 8.81862 127.982 8.5893 128.42 8.5893H130.942C131.38 8.5893 131.693 8.79778 131.88 9.27728L136.092 20.6602L140.303 9.27728C140.49 8.81862 140.803 8.5893 141.241 8.5893H143.784C144.222 8.5893 144.535 8.79778 144.723 9.27728L148.996 20.6602L153.166 9.27728C153.354 8.81862 153.666 8.5893 154.104 8.5893H156.668C157.106 8.5893 157.419 8.79778 157.607 9.27728L163.527 24.8714ZM64.7295 8.61015H62.6239C62.1861 8.61015 61.8108 8.96456 61.8108 9.42321V10.8409C60.7476 9.23558 58.6628 8.08895 56.2028 8.08895C51.5537 8.08895 47.5718 11.7582 47.5718 17.1161C47.5718 22.5365 51.5745 26.1849 56.1819 26.1849C58.6836 26.1849 60.7059 25.0382 61.8317 23.4329V24.934C61.8317 25.3718 62.2278 25.7262 62.6447 25.7262H64.7504C65.1882 25.7262 65.5426 25.3718 65.5426 24.934V9.42321C65.5217 8.96456 65.1673 8.61015 64.7295 8.61015ZM56.5989 22.7658C53.5342 22.7658 51.3452 20.2641 51.3452 17.1578C51.3452 14.0097 53.5134 11.5914 56.5989 11.5914C59.6426 11.5914 61.8525 14.0097 61.8525 17.1578C61.8317 20.2849 59.6218 22.7658 56.5989 22.7658ZM89.8511 23.3079C90.3098 23.8707 89.9137 24.3085 89.6635 24.4962C88.2041 25.6011 86.2653 26.2057 84.1597 26.2057C78.8435 26.2057 75.2994 22.3072 75.2994 17.1786C75.2994 12.05 78.8435 8.1098 84.1597 8.1098C86.2653 8.1098 88.1833 8.71439 89.6635 9.81932C89.9137 10.0069 90.2681 10.3822 89.8511 11.0076L88.8504 12.4044C88.4543 12.9465 87.9957 12.8006 87.5996 12.5504C86.6614 11.9875 85.5565 11.508 84.2848 11.508C81.1784 11.508 79.1145 14.0097 79.1145 17.1786C79.1145 20.3475 81.1784 22.8284 84.2848 22.8284C85.5773 22.8284 86.5989 22.328 87.537 21.786C87.9331 21.5775 88.3501 21.3899 88.7879 21.9736L89.8511 23.3079ZM99.7747 8.13065C94.7712 8.13065 90.7893 12.05 90.7893 17.1578C90.7893 22.3072 94.7921 26.1849 99.7747 26.1849C104.778 26.1849 108.76 22.2863 108.76 17.1578C108.781 12.0709 104.778 8.13065 99.7747 8.13065ZM99.7747 22.745C96.7101 22.745 94.521 20.2849 94.521 17.1786C94.521 14.0306 96.6892 11.6122 99.7747 11.6122C102.839 11.6122 105.028 14.0306 105.028 17.1786C105.028 20.2849 102.86 22.745 99.7747 22.745ZM72.1096 0.458652C72.5683 0.458652 72.9019 0.85476 72.9019 1.27172V24.9131C72.9019 25.3509 72.5891 25.7262 72.1096 25.7262H70.004C69.5662 25.7262 69.1909 25.3301 69.1909 24.9131V1.29256C69.1909 0.85476 69.5871 0.4795 70.004 0.4795H72.1096" fill="#F5F9FF"/>
</svg>
