<svg width="107" height="30" viewBox="0 0 107 30" fill="none" xmlns="http://www.w3.org/2000/svg">
<path fill-rule="evenodd" clip-rule="evenodd" d="M3.07773 0.0833422C1.81987 0.387616 0.768046 1.40213 0.320669 2.74276L0.196167 3.11584V13.3755V23.6353L0.322694 24.0083C0.561039 24.7112 0.797785 25.0931 1.3137 25.6072C1.9878 26.279 2.64597 26.6206 3.52724 26.7562C3.75173 26.7908 7.37204 26.8041 13.8136 26.7942C24.9544 26.7771 23.9392 26.815 24.8195 26.3829C25.8378 25.883 26.6027 24.9459 26.9099 23.8218C26.9991 23.4956 27.0046 22.8891 27.0046 13.4288C27.0046 5.15206 26.9918 3.3213 26.932 3.0359C26.8386 2.59049 26.4647 1.81443 26.157 1.42739C25.8153 0.997549 25.3146 0.599312 24.8195 0.363579C23.9897 -0.0314598 24.8894 -0.00251949 13.5759 0.00238385C4.92304 0.00616795 3.34651 0.0183197 3.07773 0.0833422ZM52.0408 6.56572L52.0543 12.5494H53.067H54.0796L54.095 12.0538L54.1103 11.5582L54.4344 11.8515C55.0633 12.4206 55.9346 12.736 56.8777 12.736C57.7226 12.736 58.4186 12.5257 59.1345 12.054C60.2366 11.328 60.8853 10.2124 61.0422 8.77339C61.1482 7.80051 60.974 6.88475 60.5165 6.01164C60.0607 5.14172 59.503 4.60065 58.6438 4.19495C57.3777 3.59706 55.9057 3.66289 54.8395 4.36497C54.6267 4.50504 54.3927 4.68497 54.3194 4.76481L54.1862 4.90999L54.1595 2.76041L54.1329 0.610878L53.0801 0.596434L52.0272 0.581991L52.0408 6.56572ZM35.146 5.02122C35.1645 9.04441 35.1676 9.14839 35.2806 9.57589C35.5844 10.7252 36.083 11.4514 36.9658 12.0305C38.5117 13.0446 40.8956 12.9927 42.4868 11.9104C43.1301 11.4729 43.5638 10.8635 43.8904 9.93788L44.0597 9.45821L44.0749 5.18111L44.09 0.904012H42.9984H41.9069L41.8882 4.80803C41.8703 8.56186 41.8654 8.72574 41.7605 9.06743C41.4141 10.196 40.452 10.7513 39.1839 10.5546C38.6335 10.4691 38.3267 10.3204 38.0102 9.9859C37.6959 9.65359 37.5033 9.25594 37.4261 8.78043C37.3928 8.57566 37.3716 6.98037 37.3714 4.67479L37.3709 0.904012H36.249H35.127L35.146 5.02122ZM49.3738 3.81175C48.874 3.94621 48.5003 4.16553 48.0972 4.56073L47.7106 4.93962V4.46746V3.99525H46.6976H45.6847L45.6983 8.27235L45.7119 12.5494L46.7207 12.564C47.4921 12.5751 47.7396 12.5626 47.7725 12.5107C47.7962 12.4734 47.8159 11.3866 47.8164 10.0956C47.8172 7.54804 47.8298 7.41357 48.1216 6.83167C48.2915 6.49259 48.6883 6.10848 49.0315 5.95072C49.2406 5.85457 49.3813 5.83507 49.8691 5.83459C50.1916 5.83427 50.5573 5.85409 50.6818 5.87866C50.8544 5.91267 50.9134 5.90638 50.93 5.85201C50.942 5.81279 50.9821 5.38966 51.019 4.91175C51.1005 3.85801 51.1036 3.86456 50.4806 3.78371C49.9498 3.71485 49.7112 3.72087 49.3738 3.81175ZM76.9367 3.77934C76.1966 3.89537 75.6049 4.18397 75.1205 4.66525L74.7892 4.9943L74.7741 4.48148L74.7589 3.9686L74.559 3.97126C74.4491 3.97276 73.9873 3.97873 73.5327 3.98459L72.7063 3.99525L72.72 8.27235L72.7336 12.5494H73.7729H74.8122L74.8163 10.0178C74.8201 7.72562 74.8296 7.4585 74.9169 7.19308C75.051 6.7853 75.2177 6.5153 75.5159 6.22291C75.912 5.83448 76.1962 5.72895 76.8375 5.73204C77.5584 5.73556 77.9135 5.9059 78.283 6.4256C78.6402 6.92808 78.6463 6.98255 78.6761 9.91123L78.7029 12.5494H79.7422H80.7815L80.7966 9.77799C80.8122 6.91012 80.7962 6.61598 80.5898 5.9843C80.3391 5.2173 79.7702 4.51164 79.1289 4.17225C78.5154 3.84756 77.5757 3.67914 76.9367 3.77934ZM65.5651 3.81558C63.9084 4.13638 62.7597 5.12152 62.2614 6.64881C61.5329 8.88191 62.4318 11.3504 64.3127 12.282C64.9356 12.5906 65.3015 12.6846 66.0182 12.7203C66.6749 12.753 67.1988 12.6711 67.7401 12.4512C68.0954 12.3068 68.6144 11.9692 68.8163 11.7512L68.9495 11.6074L68.9762 12.0784L69.0028 12.5494L69.8822 12.5647C70.3659 12.5731 70.8156 12.5666 70.8815 12.5503L71.0015 12.5208V8.26115C71.0015 5.91837 70.9834 3.99125 70.9615 3.97867C70.9395 3.96615 70.4838 3.96796 69.9488 3.98272L68.9762 4.00958V4.45526V4.90087L68.6431 4.63114C68.2662 4.32606 67.7165 4.04497 67.244 3.91584C66.9306 3.83019 65.8294 3.76442 65.5651 3.81558ZM66.0506 5.75842C65.3791 5.89028 64.7165 6.40177 64.4021 7.03095C64.1803 7.47497 64.1084 7.86734 64.1377 8.47514C64.1593 8.92492 64.1851 9.03252 64.357 9.38977C64.6112 9.91843 65.0175 10.3252 65.5575 10.5918C65.9523 10.7867 65.9721 10.7906 66.5754 10.7902C67.1724 10.7897 67.2026 10.784 67.5904 10.5974C68.8253 10.0031 69.3654 8.49188 68.815 7.17123C68.3817 6.13161 67.2071 5.53127 66.0506 5.75842ZM55.7547 5.82414C55.3867 5.92759 55.0573 6.14291 54.744 6.48497C53.8301 7.48253 53.8351 9.15937 54.7546 10.077C55.6712 10.9916 57.1829 11.0481 58.0968 10.2021C58.6292 9.70913 58.903 9.04787 58.903 8.25497C58.903 7.17357 58.3253 6.26379 57.4107 5.90467C57.0486 5.76253 56.1323 5.71797 55.7547 5.82414ZM4.39055 11.9498L4.41021 14.9478L4.55891 15.3737C5.10057 16.9249 6.25334 17.672 8.27367 17.7811C9.28312 17.8357 10.4383 17.5822 11.0887 17.1634C11.6772 16.7845 12.1889 16.1004 12.439 15.3579C12.5573 15.0069 12.5595 14.9521 12.576 11.9765L12.5927 8.95188H11.5034H10.414L10.3909 11.7367C10.3684 14.4553 10.365 14.5286 10.25 14.8229C10.1079 15.1863 9.78049 15.5084 9.34596 15.712C9.07755 15.8378 8.9805 15.8536 8.48388 15.852C8.06858 15.8507 7.86925 15.826 7.71107 15.7563C7.17426 15.5198 6.85256 15.1623 6.69389 14.626C6.60878 14.3382 6.6011 14.0559 6.61256 11.6301L6.62519 8.95188H5.49801H4.37088L4.39055 11.9498ZM18.1307 9.05166C16.401 9.42991 15.1552 10.5651 14.7446 12.1371C14.3822 13.5247 14.6584 15.0194 15.4826 16.1305C15.9801 16.8011 16.8933 17.389 17.8375 17.6466C18.4456 17.8125 19.625 17.8133 20.2294 17.6483C21.178 17.3892 21.8426 16.9147 22.4611 16.0548C22.6296 15.8204 22.7675 15.6136 22.7675 15.5951C22.7675 15.5585 21.0895 14.707 21.0227 14.7095C21.0003 14.7104 20.8759 14.8573 20.7461 15.036C20.3476 15.5849 19.7625 15.8854 19.0865 15.8884C17.1611 15.8969 16.0877 13.7087 17.1381 11.9163C17.4176 11.4394 17.9556 11.0631 18.5968 10.8961C18.9828 10.7955 19.1617 10.7969 19.52 10.9031C20.085 11.0706 20.5402 11.3994 20.8741 11.8813L21.0184 12.0895L21.8796 11.6584C22.3533 11.4212 22.7486 11.2211 22.7581 11.2137C22.7895 11.1892 22.5943 10.8481 22.394 10.5774C22.0816 10.1553 21.4938 9.63526 21.0883 9.42239C20.2792 8.99761 19.0705 8.84614 18.1307 9.05166ZM39.5997 14.7345C36.727 15.2179 34.6906 17.6941 34.6906 20.7039C34.6906 22.3838 35.2561 23.794 36.3807 24.9186C36.8874 25.4253 37.3102 25.7214 37.9773 26.0369C39.9612 26.9752 42.3791 26.8187 44.1731 25.6362C44.5955 25.3578 45.335 24.7095 45.5993 24.3861C45.8398 24.0917 45.8825 24.1754 45.18 23.5648L44.7546 23.1951L44.2515 23.6713C43.1412 24.7221 42.1037 25.1606 40.728 25.1606C38.9744 25.1606 37.4883 24.2905 36.7573 22.8358C36.4527 22.2298 36.3043 21.6558 36.2681 20.9437C36.1958 19.5236 36.6908 18.245 37.6738 17.3119C38.4963 16.5313 39.5484 16.1272 40.7553 16.1287C42.0843 16.1302 43.1697 16.6115 44.1592 17.6379C44.4483 17.9378 44.6496 18.1071 44.689 18.0833C44.8842 17.966 45.7386 17.2459 45.7386 17.1987C45.7386 17.1017 45.3127 16.5861 44.9601 16.2562C44.1159 15.4665 42.9618 14.911 41.7946 14.7327C41.184 14.6394 40.16 14.6402 39.5997 14.7345ZM59.9041 17.8807C59.2796 17.9974 58.8366 18.2305 58.3852 18.6798L58.0006 19.0626L57.9854 18.5509L57.9703 18.0391H57.2774H56.5846L56.5709 22.2643L56.5573 26.4897L57.2904 26.4748L58.0236 26.46L58.0508 23.7418L58.0781 21.0237L58.2258 20.6492C58.6139 19.6653 59.4366 19.1296 60.4522 19.1992C61.1694 19.2483 61.6778 19.5575 61.9812 20.1291C62.3255 20.7775 62.3282 20.8049 62.3531 23.7818L62.3758 26.4867H63.0911H63.8063V24.0655C63.8063 22.6394 63.8298 21.473 63.8634 21.2274C64.0405 19.9337 65.0091 19.1078 66.2403 19.2006C67.1222 19.267 67.6973 19.758 67.9699 20.6773C68.0842 21.0625 68.0893 21.1748 68.1102 23.7818L68.1319 26.4867H68.8504H69.5689L69.5495 23.542C69.5277 20.2449 69.5383 20.346 69.1286 19.5093C68.7361 18.7076 68.068 18.1652 67.1868 17.9326C65.826 17.5734 64.2426 18.0256 63.3706 19.0223L63.133 19.294L62.9613 19.029C62.3801 18.132 61.1104 17.6551 59.9041 17.8807ZM74.6284 17.8795C74.0425 17.9917 73.2348 18.4102 72.7655 18.8447L72.3909 19.1915L72.3757 18.6153L72.3605 18.0391H71.641H70.9215V23.955V29.871L71.6543 29.8858L72.3872 29.9007V27.6293V25.358L72.7364 25.678C73.7811 26.6352 75.3844 26.9357 76.7656 26.4331C78.0537 25.9644 78.9243 25.0614 79.3614 23.7407C79.848 22.2708 79.5657 20.5618 78.6456 19.407C78.0926 18.7129 77.1893 18.1249 76.3845 17.9351C75.8728 17.8145 75.0965 17.7899 74.6284 17.8795ZM83.926 17.8779C82.82 18.0545 81.743 18.7256 81.1624 19.5999C79.9225 21.4669 80.2068 24.0773 81.8152 25.5946C82.4387 26.1828 83.2055 26.5299 84.1239 26.6399C84.5994 26.6968 85.2955 26.6506 85.7381 26.5329C86.1501 26.4232 86.808 26.0662 87.1905 25.7448L87.5769 25.42V25.9549V26.4897L88.2831 26.4749L88.9892 26.46V22.2495V18.0391H88.2964H87.6035L87.5883 18.5886L87.5731 19.1381L87.2951 18.8881C86.6271 18.2871 86.0314 17.9902 85.2584 17.8728C84.6902 17.7865 84.4932 17.7873 83.926 17.8779ZM94.0066 17.8784C93.356 18.0139 92.7836 18.3388 92.3113 18.8407L92.1338 19.0292L92.1071 18.5341L92.0805 18.0391H91.3876H90.6948V22.2495V26.46H91.4143H92.1338L92.1605 23.7418C92.1864 21.1148 92.1911 21.0143 92.3019 20.7441C92.5831 20.0583 92.9417 19.6621 93.5366 19.3803C93.866 19.2242 93.9344 19.2116 94.4522 19.2116C94.9477 19.2117 95.0467 19.2281 95.3166 19.3545C95.9138 19.6343 96.3195 20.1385 96.5095 20.8372C96.5934 21.1457 96.6041 21.4723 96.6072 23.8218L96.6107 26.46L97.3468 26.4749L98.0828 26.4897L98.0658 23.4636L98.0488 20.4374L97.8927 19.9888C97.5315 18.9507 96.7412 18.2112 95.6908 17.9284C95.2524 17.8104 94.4476 17.7864 94.0066 17.8784ZM50.1199 17.9088C49.9647 17.9364 49.6592 18.0282 49.4411 18.1129C47.4345 18.8921 46.3407 20.8926 46.723 23.0849C47.0617 25.0267 48.4782 26.3679 50.4639 26.6266C51.8326 26.8049 53.1379 26.4098 54.0631 25.5369C54.7189 24.9183 55.1032 24.2758 55.3322 23.4153C55.4894 22.8251 55.4902 21.7342 55.3341 21.1303C55.0812 20.1523 54.5301 19.2994 53.7865 18.7351C53.3468 18.4014 53.0488 18.2446 52.4989 18.0574C52.0395 17.9011 51.9392 17.8868 51.2016 17.8733C50.7619 17.8654 50.2751 17.8813 50.1199 17.9088ZM98.6094 18.0846C98.6094 18.1242 98.9545 18.9457 99.3764 19.91C99.7983 20.8743 100.479 22.4307 100.889 23.3688C101.3 24.3068 101.762 25.3595 101.918 25.7081L102.2 26.3421L102.075 26.6941C101.734 27.6533 101.361 28.2208 100.901 28.48C100.651 28.621 100.557 28.6442 100.262 28.6386C100.071 28.635 99.7639 28.5831 99.579 28.5233L99.2428 28.4146L99.1926 28.5466C99.165 28.6191 99.127 28.9144 99.1081 29.2028L99.0737 29.7271L99.2279 29.8062C99.5129 29.9522 99.962 30.0176 100.532 29.996C101.02 29.9774 101.132 29.9542 101.446 29.8065C102.017 29.5381 102.517 29.006 102.886 28.2721C103.093 27.8609 103.338 27.2246 105.351 21.8764C105.594 21.2316 106.013 20.122 106.281 19.4109C106.55 18.6997 106.755 18.0941 106.737 18.0651C106.686 17.9836 105.244 17.9965 105.176 18.079C105.146 18.1157 104.761 19.153 104.322 20.3841C103.307 23.2249 102.909 24.3017 102.874 24.3005C102.859 24.2999 102.717 23.9821 102.559 23.5943C101.738 21.5793 100.296 18.1372 100.249 18.079C100.168 17.9789 98.6094 17.9842 98.6094 18.0846ZM50.186 19.3358C49.6729 19.5144 49.3269 19.7391 48.9503 20.138C48.4159 20.7041 48.137 21.4283 48.137 22.2495C48.137 23.1199 48.4377 23.8524 49.0436 24.4581C49.6228 25.0371 50.2813 25.3153 51.0662 25.3128C51.8959 25.3101 52.4419 25.0721 53.0682 24.4399C53.5569 23.9467 53.7446 23.6296 53.8942 23.0445C54.0284 22.52 54.0282 21.9786 53.8939 21.4531C53.7623 20.9388 53.542 20.5482 53.1451 20.1252C52.3422 19.2697 51.2289 18.9728 50.186 19.3358ZM74.5044 19.2648C73.4416 19.5347 72.6831 20.3459 72.4102 21.5049C72.2805 22.0555 72.3282 22.9267 72.5149 23.4168C72.6901 23.877 72.8253 24.0985 73.1316 24.4279C73.6421 24.9768 74.2426 25.2528 75.0254 25.2984C75.6266 25.3334 76.0359 25.258 76.538 25.0198C77.2787 24.6683 77.8216 23.9613 78.0352 23.0702C78.2289 22.2621 78.1441 21.5115 77.7737 20.7572C77.4205 20.0377 76.9934 19.65 76.2395 19.3641C75.7838 19.1913 74.976 19.1451 74.5044 19.2648ZM84.2191 19.2206C83.9448 19.2642 83.437 19.4715 83.1659 19.6505C82.7861 19.9013 82.4981 20.2472 82.2442 20.7572C81.6109 22.0297 81.8111 23.5146 82.7464 24.4827C83.6016 25.3678 84.9445 25.572 86.1183 24.9951C87.8669 24.1359 88.2343 21.4631 86.8041 20.0069C86.1921 19.3838 85.1625 19.0707 84.2191 19.2206Z" fill="#F5F9FF"/>
</svg>
