<svg width="128" height="30" viewBox="0 0 128 30" fill="none" xmlns="http://www.w3.org/2000/svg">
<path d="M73.8606 15.901C73.8606 12.9397 72.5943 10.3297 68.3179 10.3297C66.1212 10.3297 64.3775 10.9463 63.425 11.4966L64.1212 13.8789C64.9897 13.3308 66.3754 12.8756 67.6881 12.8756C69.8583 12.8712 70.2141 14.1043 70.2141 14.8955V15.0833C65.4825 15.0745 62.4946 16.7121 62.4946 20.0491C62.4946 22.0867 64.0173 23.9983 66.6649 23.9983C68.2914 23.9983 69.655 23.3486 70.4683 22.3077H70.55C70.55 22.3077 71.0893 24.5685 74.0683 23.7044C73.9114 22.763 73.8606 21.7596 73.8606 20.553M70.3268 19.0325C70.3268 19.2734 70.3069 19.5209 70.2384 19.7419C69.9644 20.6458 69.0251 21.4127 67.8538 21.4127C66.8748 21.4127 66.0991 20.858 66.0991 19.6823C66.0991 17.8878 68.0771 17.3905 70.3268 17.4016V19.0325Z" fill="#F5F9FF"/>
<path d="M0.160889 6.29614C0.160889 6.29614 3.25045 18.9614 3.74549 21.0189C4.32008 23.4189 5.35877 24.3007 8.34889 23.7062L10.2782 15.8542C10.7688 13.9028 11.0959 12.5128 11.4097 10.5304H11.465C11.6882 12.5327 12.002 13.9095 12.4042 15.8609C12.4042 15.8609 13.1888 19.4255 13.591 21.2974C13.9932 23.1692 15.1181 24.3493 18.0463 23.7062L22.6453 6.29835H18.9325L17.3634 13.8255C16.9413 16.0156 16.559 17.7305 16.2628 19.7327H16.2098C15.9424 17.7504 15.5998 16.104 15.1711 13.9713L13.5357 6.30057H9.66825L7.92015 13.7791C7.42511 16.0531 6.96101 17.8852 6.66709 19.8233H6.61405C6.31128 18.0001 5.90906 15.6951 5.47369 13.494C5.47369 13.494 4.435 8.14809 4.07035 6.30277" fill="#F5F9FF"/>
<path d="M33.1915 15.901C33.1915 12.9397 31.9252 10.3297 27.6489 10.3297C25.4521 10.3297 23.7085 10.9463 22.7582 11.4966L23.4543 13.8789C24.3228 13.3308 25.7085 12.8756 27.0212 12.8756C29.1936 12.8712 29.5472 14.1043 29.5472 14.8955V15.0833C24.8157 15.0745 21.8278 16.7121 21.8278 20.0491C21.8278 22.0867 23.3504 23.9983 25.9958 23.9983C27.6246 23.9983 28.9859 23.3486 29.8014 22.3077H29.8809C29.8809 22.3077 30.4224 24.5685 33.3992 23.7044C33.2423 22.763 33.1915 21.7596 33.1915 20.553M29.6599 19.0325C29.6599 19.2734 29.6378 19.5209 29.5715 19.7419C29.2975 20.6458 28.3605 21.4127 27.187 21.4127C26.208 21.4127 25.4322 20.858 25.4322 19.6823C25.4322 17.8878 27.4102 17.3905 29.6599 17.4016V19.0325Z" fill="#F5F9FF"/>
<path d="M39.0966 20.0068V6.29614H35.5607V23.704H39.0966" fill="#F5F9FF"/>
<path d="M85.3462 6.29614V19.1382C85.3462 20.9084 85.6799 22.1504 86.3915 22.9062C87.0125 23.5692 88.038 23.9979 89.2689 23.9979C90.3142 23.9979 91.3419 23.799 91.8281 23.62L91.7817 20.8598C91.4214 20.9482 91.006 21.0167 90.438 21.0167C89.2336 21.0167 88.8313 20.2454 88.8313 18.6565V13.7415H91.9076V10.4133H88.8313V6.29614" fill="#F5F9FF"/>
<path d="M76.2119 10.6301V23.7065H79.8584V17.0103C79.8584 16.6501 79.8805 16.3363 79.9379 16.0468C80.2076 14.6434 81.2816 13.7462 82.8198 13.7462C83.2441 13.7462 83.5469 13.7926 83.8739 13.839V10.4136C83.5977 10.3583 83.4098 10.3318 83.0673 10.3318C81.7059 10.3318 80.1612 11.2114 79.5092 13.0942H79.4076V10.6301" fill="#F5F9FF"/>
<path d="M41.5747 10.6298V23.7061H45.1284V16.0375C45.1284 15.6773 45.1704 15.2972 45.2963 14.9657C45.5902 14.1922 46.3085 13.2905 47.4555 13.2905C48.8875 13.2905 49.5594 14.5038 49.5594 16.2519V23.7061H53.1086V15.9447C53.1086 15.6022 53.1572 15.1889 53.2567 14.8839C53.5484 14.0066 54.3219 13.2905 55.3893 13.2905C56.8435 13.2905 57.5418 14.4817 57.5418 16.5392V23.7061H61.0933V16.0044C61.0933 11.9425 59.0314 10.3336 56.7021 10.3336C55.67 10.3336 54.8567 10.5922 54.1208 11.043C53.502 11.4231 52.9473 11.9646 52.4655 12.674H52.4125C51.8511 11.264 50.5296 10.3336 48.808 10.3336C46.5958 10.3336 45.6013 11.4563 44.998 12.4066H44.9449V10.6298" fill="#F5F9FF"/>
<path d="M111.015 10.1017C111.718 10.1017 112.295 9.73489 112.372 9.26195L113.066 1.41217C113.066 0.636473 112.16 0 111.015 0C109.873 0 108.967 0.636473 108.967 1.41217L109.661 9.26195C109.736 9.73489 110.315 10.1017 111.015 10.1017Z" fill="#F5F9FF"/>
<path d="M106.772 12.5521C107.124 11.9466 107.097 11.2593 106.726 10.9565L100.275 6.4327C99.6055 6.04375 98.5978 6.51226 98.0276 7.50011C97.4574 8.49018 97.5569 9.59295 98.2265 9.97969L105.367 13.3035C105.816 13.4692 106.421 13.1532 106.775 12.5432" fill="#F5F9FF"/>
<path d="M115.266 12.5456C115.617 13.1556 116.225 13.4716 116.669 13.3058L123.814 9.98206C124.486 9.5931 124.585 8.49033 124.013 7.50248C123.443 6.51242 122.433 6.04611 121.765 6.43506L115.314 10.9589C114.945 11.2616 114.919 11.9489 115.268 12.5545" fill="#F5F9FF"/>
<path d="M111.015 19.9049C111.718 19.9049 112.295 20.2673 112.372 20.7381L113.066 28.5856C113.066 29.3635 112.16 30 111.015 30C109.873 30 108.967 29.3635 108.967 28.5856L109.661 20.7381C109.736 20.2673 110.315 19.9049 111.015 19.9049Z" fill="#F5F9FF"/>
<path d="M115.266 17.4545C115.617 16.8446 116.225 16.5285 116.669 16.6943L123.814 20.0159C124.486 20.407 124.585 21.5098 124.013 22.4999C123.443 23.4877 122.433 23.9562 121.765 23.5673L115.314 19.0479C114.945 18.7429 114.919 18.0578 115.268 17.4501" fill="#F5F9FF"/>
<path d="M106.772 17.4499C107.124 18.0599 107.097 18.7428 106.726 19.0477L100.275 23.5693C99.6055 23.9561 98.5978 23.4876 98.0276 22.5019C97.4574 21.5118 97.5569 20.4069 98.2265 20.0157L105.367 16.6963C105.816 16.5262 106.421 16.8444 106.775 17.4521" fill="#F5F9FF"/>
<path d="M126.322 21.9692C126.954 21.9692 127.454 22.4598 127.454 23.0853C127.454 23.7262 126.955 24.2168 126.314 24.2168C125.675 24.2168 125.169 23.7239 125.169 23.0853C125.169 22.4598 125.675 21.9692 126.314 21.9692M126.309 22.1659C125.801 22.1659 125.416 22.5792 125.416 23.0853C125.416 23.6068 125.801 24.0135 126.322 24.0135C126.829 24.0223 127.2 23.609 127.2 23.0941C127.2 22.5814 126.829 22.1659 126.314 22.1659H126.309ZM126.11 23.7041H125.894V22.5306C126.011 22.5085 126.137 22.4952 126.3 22.4952C126.497 22.4952 126.596 22.5306 126.672 22.588C126.742 22.6366 126.791 22.7295 126.791 22.8355C126.791 22.9836 126.685 23.0742 126.559 23.1162V23.1295C126.665 23.1715 126.72 23.2621 126.756 23.4101C126.791 23.5913 126.813 23.6621 126.84 23.7041H126.612C126.579 23.6621 126.552 23.556 126.521 23.3947C126.495 23.2687 126.417 23.2112 126.247 23.2112H126.106V23.7041H126.11ZM126.11 23.0433H126.258C126.422 23.0433 126.561 22.9947 126.561 22.8532C126.561 22.7405 126.49 22.6632 126.28 22.6632C126.199 22.6632 126.15 22.6698 126.11 22.6786V23.0433Z" fill="#F5F9FF"/>
</svg>
