<svg width="143" height="30" viewBox="0 0 143 30" fill="none" xmlns="http://www.w3.org/2000/svg">
<path d="M21.9159 7.66873L21.7882 11.7739L11.0815 23.412C15.5539 23.412 18.3898 23.3683 20.0251 23.2775C19.5512 25.4862 19.1658 27.2918 18.7775 29.9989C16.6267 29.8172 13.2737 29.7718 9.919 29.7718C6.17943 29.7718 2.911 29.8167 0.287964 29.9989L0.375379 25.8472L11.0815 14.2555C6.39457 14.2555 4.67407 14.2998 2.74014 14.3452C3.1687 12.27 3.47012 9.97048 3.77096 7.66873C7.16768 7.80383 8.50049 7.8481 12.9297 7.8481C17.015 7.84867 19.3355 7.80383 21.9159 7.66873ZM34.0854 6.44945C27.1177 6.44945 21.7882 12.6747 21.7882 20.1203C21.7882 25.7132 25.0124 29.9989 31.2898 29.9989C38.299 29.9989 43.5876 23.7725 43.5876 16.2831C43.5882 10.7374 40.448 6.44945 34.0854 6.44945ZM31.9778 24.0154C30.4293 24.0154 29.5273 22.6151 29.5273 19.8638C29.5273 15.7586 31.2041 12.4664 33.2692 12.4664C34.7728 12.4664 35.6759 13.8207 35.6759 16.6158C35.6754 20.6755 34.0429 24.0154 31.9778 24.0154ZM132.568 6.14066C125.511 6.14066 120.11 12.4482 120.11 19.9875C120.11 25.6565 123.377 29.9989 129.737 29.9989C136.837 29.9989 142.196 23.6908 142.196 16.1043C142.196 10.4836 139.018 6.14066 132.568 6.14066ZM130.3 23.9916C128.751 23.9916 127.85 22.5912 127.85 19.8399C127.85 15.7348 129.527 12.4431 131.592 12.4431C133.095 12.4431 134 13.7963 134 16.5919C133.999 20.6533 132.364 23.9916 130.3 23.9916ZM79.7481 14.5706C80.3078 10.7374 80.007 7.26287 75.7509 7.26287C72.6544 7.26287 69.3009 9.87966 66.9361 14.2555C67.4526 10.6454 67.1507 7.26287 62.9371 7.26287C59.7555 7.26287 56.3157 10.0142 53.9498 14.5706C54.552 11.5933 54.4237 8.20912 54.2512 7.48765C51.8007 7.89408 49.6516 8.11886 46.6409 8.20912C46.7272 10.285 46.5978 12.9897 46.2107 15.5634L45.2218 22.329C44.8347 24.9918 44.4044 28.0593 43.9742 29.9994H51.9721C52.0158 28.825 52.3173 26.9762 52.5318 25.3522L53.2198 20.7067C53.7783 17.6824 56.1857 14.1205 58.0345 14.1205C59.1096 14.1205 59.0676 15.1575 58.7661 17.0971L57.9919 22.3284C57.6036 24.9912 57.1751 28.0587 56.7442 29.9989H64.8279C64.8716 28.8244 65.1293 26.9756 65.3439 25.3516L66.0313 20.7061C66.591 17.6818 69 14.1199 70.8477 14.1199C71.9239 14.1199 71.8813 15.111 71.7076 16.4653L69.7765 29.9983H77.1541L79.7481 14.5706ZM118.376 22.9165L117.516 28.2403C116.183 28.9618 113.689 30 110.808 30C105.906 30 104.918 27.3832 105.691 21.8346L106.938 12.9023H104.526L105.207 7.12039L107.841 6.99324L108.83 2.79787L116.268 0L115.323 6.99268H120.44C120.269 7.71414 119.665 11.6853 119.496 12.9017H114.505L113.387 21.1574C113.086 23.2775 113.259 24.045 114.719 24.045C115.796 24.0438 117.386 23.412 118.376 22.9165ZM90.1625 25.7921C92.8696 25.4567 94.7325 22.8472 95.1804 20.2435L95.2559 19.5459C94.0928 19.2859 92.4115 19.0878 90.7812 19.2871C89.2288 19.4761 87.9368 20.1215 87.242 21.0558C86.7181 21.7267 86.4547 22.5294 86.5717 23.4864C86.7482 24.9197 88.3336 26.0152 90.1625 25.7921ZM87.8585 29.9154C84.0378 30.3849 81.5214 28.8681 80.7659 25.4186C80.2919 23.248 80.9498 20.7754 82.1004 19.3001C83.6415 17.3707 86.1528 16.1321 89.2174 15.7581C91.6838 15.4521 93.7619 15.6031 95.7055 15.9709L95.7861 15.6377C95.8417 15.1047 95.8979 14.5729 95.8201 13.936C95.6186 12.3006 94.3289 11.3266 91.1445 11.7182C88.996 11.9822 86.952 12.7581 85.3649 13.6414L83.8209 8.97599C85.9722 7.74082 88.6838 6.80082 91.7871 6.41993C97.7149 5.6928 101.88 7.58302 102.414 11.9288C102.555 13.0845 102.572 14.3095 102.426 15.4209C101.665 20.7941 101.177 24.8374 100.963 27.5473C100.929 27.9667 100.932 28.6876 100.969 29.7094L93.6132 29.7026C93.7698 29.2791 93.91 28.7047 94.0349 27.9843C94.1178 27.5104 94.1768 26.9126 94.2137 26.1883C92.659 28.3215 90.5218 29.5885 87.8585 29.9154Z" fill="#F5F9FF"/>
</svg>
